<svg width="120" height="140" viewBox="0 0 120 140" fill="none" xmlns="http://www.w3.org/2000/svg">
<g filter="url(#filter0_d_1569_9388)">
<rect x="6" y="6" width="100" height="120" rx="8" fill="#F8EBE2" shape-rendering="crispEdges"/>
<path fill-rule="evenodd" clip-rule="evenodd" d="M65.5939 29.5747C65.0989 29.7157 64.5831 29.4287 64.4427 28.9336C64.3017 28.4383 64.5887 27.9225 65.0837 27.7818C65.1032 27.7762 65.1217 27.7719 65.1402 27.7676C67.0507 27.1886 68.9612 26.6312 70.8625 27.892C71.8495 28.5463 72.7717 29.7034 73.3714 31.2549C73.8708 32.5475 74.1532 34.1268 74.064 35.9253C73.9646 37.9293 73.4013 40.2194 72.3853 42.391C71.4736 44.3398 70.1964 46.2009 68.5615 47.6855C65.4393 50.5204 61.105 51.9262 57.4356 53.116C57.214 53.1879 56.9995 53.2574 56.4155 53.4497C54.5726 54.0574 52.9807 54.6315 51.6674 55.3432C50.4134 56.0231 49.3967 56.8386 48.6254 57.9546C47.7927 59.1599 47.2279 60.7241 47.1797 62.4361C47.1381 63.9188 47.4853 65.5151 48.3831 67.0901C49.427 68.9207 51.2115 70.7244 53.4214 72.0839C55.4195 73.3133 57.7513 74.1682 60.1779 74.337C65.3875 74.6997 71.2304 71.9136 77.0726 69.1271C77.5375 68.9058 78.0939 69.1034 78.3149 69.5682C78.5362 70.033 78.3387 70.5895 77.8742 70.8111C71.8128 73.7015 65.7513 76.5923 60.0541 76.196C57.3023 76.0043 54.6791 75.0475 52.4452 73.6731C49.9745 72.1528 47.9618 70.1062 46.7658 68.0083C45.6878 66.1173 45.2711 64.1867 45.3217 62.3849C45.381 60.2926 46.0736 58.3765 47.0955 56.8975C48.0526 55.5126 49.2831 54.5179 50.7859 53.7031C52.23 52.9204 53.9066 52.3139 55.8331 51.6793H55.8368L56.8671 51.345C60.3572 50.2133 64.48 48.8762 67.3084 46.308C68.7569 44.9929 69.8905 43.3389 70.7023 41.6037C71.6134 39.6565 72.118 37.6148 72.2063 35.8376C72.2819 34.3123 72.0495 32.9923 71.6375 31.9253C71.1838 30.7509 70.5236 29.9006 69.8353 29.4444C68.6541 28.6614 67.1692 29.0941 65.6791 29.5457C65.6516 29.5568 65.6236 29.566 65.5939 29.5747Z" fill="#FDC419"/>
<path fill-rule="evenodd" clip-rule="evenodd" d="M71.3414 28.254C71.6281 28.4982 71.9056 28.7858 72.1661 29.1136C72.0275 29.7244 71.7621 30.3232 71.2593 31.1031C71.0824 30.7772 70.8889 30.4874 70.6846 30.2355C71.1195 29.4914 71.2831 28.917 71.3414 28.254ZM73.5874 31.8763C73.7152 32.2886 73.8216 32.725 73.9025 33.1846C73.4358 33.8509 72.8633 34.4475 72.2179 35.0423C72.2093 34.6164 72.176 34.209 72.121 33.821C72.7016 33.2303 73.2136 32.5979 73.5874 31.8763ZM73.821 37.9531C73.7182 38.505 73.5852 39.0673 73.4219 39.6327C72.7682 40.1624 72.1053 40.4994 71.0179 40.8874C71.1806 40.4938 71.3266 40.0985 71.4562 39.7037C72.3479 39.3176 72.8874 38.9105 73.6053 38.1772C73.6753 38.1053 73.7469 38.0309 73.821 37.9528V37.9531ZM71.7908 43.5543C71.5506 43.9855 71.292 44.4096 71.0148 44.8222C70.0784 45.1059 69.1979 45.2735 68.1645 45.4531C68.4945 45.0917 68.805 44.7121 69.0954 44.3185C69.2957 44.2775 69.4935 44.2349 69.6911 44.1886C70.2303 44.0633 70.7648 43.9151 71.3266 43.7219C71.479 43.6695 71.6337 43.6139 71.7908 43.5543ZM67.3624 48.6658C66.7435 49.1225 66.0914 49.5364 65.4189 49.9154C64.2161 50.0037 63.0201 49.9309 61.1429 49.8593C61.8229 49.5923 62.4985 49.3043 63.1581 48.9898C64.7019 49.0395 65.8016 49.0093 67.3624 48.6661V48.6658ZM51.4469 55.4658C50.679 55.9022 50.0044 56.3954 49.4253 56.9861C48.3176 57.4266 47.4985 58.0488 46.226 58.9979L45.9084 59.234C46.1355 58.5914 46.421 57.9877 46.7513 57.4337C48.2278 56.3562 49.1682 55.8389 51.4469 55.4658ZM47.2969 61.2516C47.2312 61.6361 47.1911 62.0318 47.1797 62.4361C47.1766 62.542 47.176 62.6482 47.1769 62.755C46.8738 63.0593 46.3596 63.5587 45.4627 64.4025C45.384 63.9361 45.3386 63.4735 45.3235 63.0179C45.9065 62.4377 46.6105 61.8225 47.2969 61.2516ZM57.5028 73.875C57.9161 73.9886 58.3352 74.084 58.7584 74.1602C59.1442 74.834 59.5303 75.5074 59.917 76.1858C59.5235 76.1546 59.1327 76.1077 58.7454 76.0469C58.3306 75.3213 57.9164 74.5991 57.5028 73.875ZM64.0682 74.0905C64.4077 74.0296 64.7491 73.9599 65.0923 73.8818C65.4843 74.4256 65.875 74.971 66.2648 75.5167C65.9306 75.6031 65.5976 75.6827 65.2648 75.755C64.8667 75.1997 64.4679 74.6445 64.0682 74.0901V74.0905ZM70.1537 72.2485C70.5102 72.1062 70.8679 71.9593 71.2263 71.8083C72.0158 72.2942 72.2614 72.4667 73.0284 73.063C72.6963 73.209 72.3648 73.3522 72.0334 73.4926C71.475 73.0695 71.1821 72.8877 70.1537 72.2485ZM74.8284 70.1917C75.1411 70.0451 75.4537 69.8972 75.767 69.7488C76.5164 70.3914 76.8565 70.6818 77.326 71.0725C77.0121 71.2222 76.6982 71.3716 76.3843 71.5201C75.9945 71.192 75.6019 70.855 74.8284 70.1917Z" fill="#ED9B00"/>
<path fill-rule="evenodd" clip-rule="evenodd" d="M62.9355 37.5204L60.1781 49.9216C60.1377 50.2269 60.1877 50.2365 60.0917 50.6507L59.1507 55.6723C58.8288 58.0682 58.1463 61.4278 57.7121 63.8599C57.3871 65.6791 58.7565 67.6226 60.9309 68.1895C62.713 68.6544 65.5939 67.7525 66.8865 67.271C68.2173 66.7757 70.9173 65.2902 71.4766 64.2877C71.268 63.8324 70.422 63.0559 70.1849 62.4726L77.2738 60.0979L75.8266 63.9735C75.546 64.6442 75.3254 65.3287 75.0908 65.8929C74.8288 66.5232 74.6158 67.1402 74.442 67.8065C73.8781 67.6136 73.5849 66.8108 73.0729 66.288C72.6883 66.671 72.4034 67.1343 71.9985 67.5578C69.5244 70.1445 66.1775 71.6587 62.3707 72.296C61.1485 72.5007 60.1633 72.5775 58.8482 72.621C57.6667 72.6608 56.6717 72.9553 55.6291 73.2667C54.5815 73.58 50.9818 75.4318 50.3809 76.2531L50.2883 76.229C49.8244 75.5149 48.4047 71.3318 44.5778 68.9263C43.5534 68.2821 42.5825 67.667 41.7136 66.9809C39.771 65.447 38.2127 63.659 37.026 61.6124C36.8738 61.3503 36.7704 61.2528 36.6266 60.9627C36.3797 60.4649 36.2315 60.0649 36.026 59.5611C35.8038 59.0167 35.7087 58.6491 35.563 58.0886L35.2627 56.5321C34.9899 56.6121 34.9596 56.663 34.693 56.7732C34.4389 56.8775 34.4343 56.8479 34.1797 56.9667C33.7655 57.1599 33.4399 57.5482 33.5371 56.8355L34.7528 49.0074C35.6346 49.9087 36.4025 50.8784 37.2948 51.8031L39.7809 54.5426C39.2871 54.9377 38.1886 55.1883 37.768 55.4957C37.8047 56.5704 39.4328 59.2824 40.3068 60.2618C41.6241 61.738 41.8667 61.9479 43.4516 63.1744C44.8102 64.2263 47.1355 64.5182 48.5025 63.5948C50.2923 62.3861 50.3652 60.1355 51.2284 58.2065C51.4269 57.763 51.6352 57.0932 51.7874 56.7081C51.8988 56.4253 51.9355 56.1269 52.0362 55.8442C52.1655 55.4812 52.1908 55.5837 52.3223 55.1741L54.226 49.6451C54.6081 48.5661 55.0343 46.938 55.5306 45.8291L58.2812 36.3065L62.9355 37.5204Z" fill="#68BEB8"/>
<path fill-rule="evenodd" clip-rule="evenodd" d="M60.6673 36.929C60.2053 38.6107 58.4121 45.4632 57.5899 48.8703C56.7679 52.2774 55.2186 59.0783 54.8908 62.5188C54.5627 65.9589 55.0747 67.6182 56.1152 68.7709C57.1559 69.924 58.725 70.5706 60.4522 70.682C62.1797 70.7938 64.0655 70.37 65.7325 69.7706C67.3994 69.1716 68.8479 68.3965 69.9426 67.6648C71.0374 66.9333 71.7784 66.245 71.975 65.6894C72.138 65.2293 71.9272 64.8601 71.2142 64.6388C70.3325 65.6089 68.0686 66.8308 66.8862 67.2712C65.5936 67.7527 62.7127 68.6543 60.9303 68.1895C58.7562 67.6225 57.3868 65.679 57.7115 63.8601C58.146 61.428 58.8284 58.0685 59.1504 55.6722L60.0914 50.6509C60.1874 50.2364 60.1374 50.2268 60.1778 49.9215L62.9352 37.5206L60.667 36.9293L60.6673 36.929Z" fill="#97D1CF"/>
<path fill-rule="evenodd" clip-rule="evenodd" d="M53.5238 37.8299L66.3102 41.1648C67.5797 41.496 68.3473 42.8059 68.0164 44.0762C67.6855 45.3463 66.3763 46.1142 65.1072 45.7833L52.3204 42.4484C51.0513 42.1173 50.2834 40.8074 50.6143 39.5373C50.9451 38.2673 52.2544 37.4991 53.5238 37.8299Z" fill="#79C6C0"/>
<path fill-rule="evenodd" clip-rule="evenodd" d="M53.5237 37.8299L66.3101 41.1648C67.2064 41.3987 67.8521 42.12 68.0382 42.9707C65.591 43.5481 62.1651 43.4287 58.5447 42.4842C55.4197 41.6691 52.7209 40.3889 50.8484 38.9611C51.3694 38.0469 52.4601 37.5528 53.5237 37.8299Z" fill="#92CFCC"/>
<path fill-rule="evenodd" clip-rule="evenodd" d="M63.4986 26.6136C66.6048 27.4238 68.4659 30.5994 67.6563 33.7071C66.8467 36.8145 63.6727 38.6768 60.5668 37.867C57.4606 37.0568 55.5995 33.8812 56.4091 30.7735C57.2186 27.666 60.3927 25.8037 63.4986 26.6136ZM62.7933 29.3204C61.1819 28.9 59.5347 29.8667 59.1146 31.479C58.6946 33.0917 59.6603 34.7395 61.272 35.1599C62.8838 35.5806 64.531 34.6139 64.951 33.0015C65.3711 31.3889 64.4051 29.741 62.7936 29.3207L62.7933 29.3204Z" fill="#6BC2BB"/>
<path fill-rule="evenodd" clip-rule="evenodd" d="M64.9443 26.8888C64.7483 26.9953 64.5221 27.2095 64.2986 27.4787C64.0332 27.7981 63.7798 28.1901 63.5807 28.5808C63.394 28.9484 63.265 29.2972 63.2172 29.5799C63.1906 29.7358 63.1811 29.8367 63.194 29.8552C63.2045 29.8697 63.4826 29.8854 63.6848 29.8963L63.7573 29.9006C63.7619 29.8753 63.7678 29.8493 63.7746 29.8234C63.8307 29.6071 63.9789 29.2768 64.228 28.9395C64.3579 28.7635 64.5166 28.5842 64.6798 28.3996C64.907 28.1422 65.1474 27.8703 65.274 27.6314C65.3511 27.4858 65.3891 27.3475 65.39 27.2262C65.3909 27.1243 65.3666 27.0324 65.319 26.9589C65.2789 26.8966 65.2252 26.8484 65.1672 26.8348C65.1153 26.8225 65.0416 26.8364 64.9446 26.8888H64.9443ZM63.2428 26.6C63.5764 26.1981 63.9388 25.8651 64.2872 25.6762C64.7107 25.4463 65.1181 25.4074 65.4798 25.4929C65.9098 25.5941 66.2524 25.8703 66.4718 26.2098C66.6672 26.5117 66.7672 26.8645 66.7638 27.237C66.7622 27.3922 66.7431 27.55 66.7054 27.7083C66.7993 27.6685 66.8888 27.6351 66.973 27.6098C67.2338 27.5308 67.4666 27.5154 67.6672 27.5512L67.6699 27.554C67.8709 27.5898 68.0394 27.6722 68.1749 27.7932L68.174 27.7944C68.3159 27.9203 68.4138 28.0768 68.4681 28.2564C68.5243 28.4407 68.5323 28.6453 68.4943 28.858C68.4468 29.1197 68.324 29.4083 68.1545 29.6975C67.9882 29.9814 67.773 30.2725 67.544 30.5364C67.3153 30.8 67.0727 31.0401 66.8261 31.2416C66.5792 31.4438 66.3181 31.6163 66.0505 31.7484C65.7804 31.8817 65.5067 31.97 65.2533 32.0182C64.9527 32.0753 64.6675 32.0759 64.4351 32.0283C64.1699 31.974 63.9647 31.8601 63.8119 31.7172V31.7148C63.6687 31.5805 63.573 31.4246 63.5172 31.2657C63.0456 31.2379 62.4394 31.1728 62.0684 30.6478C61.8314 30.312 61.774 29.8595 61.8595 29.3537C61.9317 28.9271 62.1064 28.4401 62.3527 27.9558C62.5897 27.4898 62.9039 27.008 63.2431 26.6003L63.2428 26.6ZM64.9348 30.6765C65.0156 30.6111 65.099 30.5296 65.1946 30.437C65.3172 30.3175 65.4894 30.15 65.7385 29.9463C66.0104 29.7234 66.3579 29.4725 66.6897 29.2697C66.7496 29.233 66.8085 29.1981 66.8662 29.1654C66.7616 29.3222 66.6372 29.4827 66.5042 29.6361C66.3338 29.8321 66.148 30.0151 65.9533 30.1743C65.7801 30.316 65.6073 30.4321 65.4419 30.5138C65.2875 30.5898 65.1363 30.6392 65.0002 30.6654C64.9774 30.6694 64.9554 30.6731 64.9348 30.6762V30.6765Z" fill="#FDC419"/>
<path d="M41.375 93.1934H42.9863C42.9434 93.7637 42.7852 94.2695 42.5117 94.7109C42.2383 95.1484 41.8574 95.4922 41.3691 95.7422C40.8809 95.9922 40.2891 96.1172 39.5938 96.1172C39.0586 96.1172 38.5762 96.0234 38.1465 95.8359C37.7207 95.6445 37.3555 95.373 37.0508 95.0215C36.75 94.666 36.5195 94.2402 36.3594 93.7441C36.1992 93.2441 36.1191 92.6836 36.1191 92.0625V91.4121C36.1191 90.791 36.2012 90.2305 36.3652 89.7305C36.5293 89.2305 36.7637 88.8047 37.0684 88.4531C37.377 88.0977 37.7461 87.8242 38.1758 87.6328C38.6094 87.4414 39.0938 87.3457 39.6289 87.3457C40.3242 87.3457 40.9121 87.4746 41.3926 87.7324C41.873 87.9863 42.2461 88.3359 42.5117 88.7812C42.7773 89.2266 42.9375 89.7383 42.9922 90.3164H41.3809C41.3496 89.957 41.2715 89.6523 41.1465 89.4023C41.0254 89.1523 40.8418 88.9629 40.5957 88.834C40.3535 88.7012 40.0312 88.6348 39.6289 88.6348C39.3164 88.6348 39.041 88.6934 38.8027 88.8105C38.5684 88.9277 38.373 89.1035 38.2168 89.3379C38.0605 89.5684 37.9434 89.8574 37.8652 90.2051C37.7871 90.5488 37.748 90.9473 37.748 91.4004V92.0625C37.748 92.4961 37.7832 92.8848 37.8535 93.2285C37.9238 93.5723 38.0332 93.8633 38.1816 94.1016C38.3301 94.3398 38.5215 94.5215 38.7559 94.6465C38.9902 94.7715 39.2695 94.834 39.5938 94.834C39.9883 94.834 40.3086 94.7715 40.5547 94.6465C40.8047 94.5215 40.9941 94.3379 41.123 94.0957C41.2559 93.8535 41.3398 93.5527 41.375 93.1934ZM43.8418 92.8945V92.7715C43.8418 92.3066 43.9082 91.8789 44.041 91.4883C44.1738 91.0938 44.3672 90.752 44.6211 90.4629C44.875 90.1738 45.1855 89.9492 45.5527 89.7891C45.9199 89.625 46.3379 89.543 46.8066 89.543C47.2832 89.543 47.7051 89.625 48.0723 89.7891C48.4434 89.9492 48.7559 90.1738 49.0098 90.4629C49.2637 90.752 49.457 91.0938 49.5898 91.4883C49.7227 91.8789 49.7891 92.3066 49.7891 92.7715V92.8945C49.7891 93.3555 49.7227 93.7832 49.5898 94.1777C49.457 94.5684 49.2637 94.9102 49.0098 95.2031C48.7559 95.4922 48.4453 95.7168 48.0781 95.877C47.7109 96.0371 47.291 96.1172 46.8184 96.1172C46.3496 96.1172 45.9297 96.0371 45.5586 95.877C45.1875 95.7168 44.875 95.4922 44.6211 95.2031C44.3672 94.9102 44.1738 94.5684 44.041 94.1777C43.9082 93.7832 43.8418 93.3555 43.8418 92.8945ZM45.3887 92.7715V92.8945C45.3887 93.1719 45.416 93.4316 45.4707 93.6738C45.5254 93.916 45.6094 94.1289 45.7227 94.3125C45.8359 94.4961 45.9824 94.6406 46.1621 94.7461C46.3457 94.8477 46.5645 94.8984 46.8184 94.8984C47.0684 94.8984 47.2832 94.8477 47.4629 94.7461C47.6426 94.6406 47.7891 94.4961 47.9023 94.3125C48.0195 94.1289 48.1055 93.916 48.1602 93.6738C48.2148 93.4316 48.2422 93.1719 48.2422 92.8945V92.7715C48.2422 92.498 48.2148 92.2422 48.1602 92.0039C48.1055 91.7617 48.0195 91.5488 47.9023 91.3652C47.7891 91.1777 47.6406 91.0312 47.457 90.9258C47.2773 90.8164 47.0605 90.7617 46.8066 90.7617C46.5566 90.7617 46.3418 90.8164 46.1621 90.9258C45.9824 91.0312 45.8359 91.1777 45.7227 91.3652C45.6094 91.5488 45.5254 91.7617 45.4707 92.0039C45.416 92.2422 45.3887 92.498 45.3887 92.7715ZM54.4062 94.6523V91.7285C54.4062 91.5137 54.3691 91.3281 54.2949 91.1719C54.2207 91.0156 54.1074 90.8945 53.9551 90.8086C53.8027 90.7227 53.6094 90.6797 53.375 90.6797C53.168 90.6797 52.9863 90.7148 52.8301 90.7852C52.6777 90.8555 52.5605 90.9551 52.4785 91.084C52.3965 91.209 52.3555 91.3535 52.3555 91.5176H50.8027C50.8027 91.2559 50.8652 91.0078 50.9902 90.7734C51.1152 90.5352 51.293 90.3242 51.5234 90.1406C51.7578 89.9531 52.0371 89.8066 52.3613 89.7012C52.6895 89.5957 53.0566 89.543 53.4629 89.543C53.9434 89.543 54.3711 89.625 54.7461 89.7891C55.125 89.9492 55.4219 90.1914 55.6367 90.5156C55.8555 90.8398 55.9648 91.248 55.9648 91.7402V94.5059C55.9648 94.8223 55.9844 95.0938 56.0234 95.3203C56.0664 95.543 56.1289 95.7363 56.2109 95.9004V96H54.6348C54.5605 95.8398 54.5039 95.6367 54.4648 95.3906C54.4258 95.1406 54.4062 94.8945 54.4062 94.6523ZM54.623 92.1387L54.6348 93.0586H53.6562C53.4141 93.0586 53.2012 93.084 53.0176 93.1348C52.834 93.1816 52.6836 93.252 52.5664 93.3457C52.4492 93.4355 52.3613 93.5449 52.3027 93.6738C52.2441 93.7988 52.2148 93.9414 52.2148 94.1016C52.2148 94.2578 52.25 94.3984 52.3203 94.5234C52.3945 94.6484 52.5 94.748 52.6367 94.8223C52.7773 94.8926 52.9414 94.9277 53.1289 94.9277C53.4023 94.9277 53.6406 94.873 53.8438 94.7637C54.0469 94.6504 54.2051 94.5137 54.3184 94.3535C54.4316 94.1934 54.4922 94.041 54.5 93.8965L54.9453 94.5645C54.8906 94.7246 54.8086 94.8945 54.6992 95.0742C54.5898 95.2539 54.4492 95.4219 54.2773 95.5781C54.1055 95.7344 53.8984 95.8633 53.6562 95.9648C53.4141 96.0664 53.1328 96.1172 52.8125 96.1172C52.4023 96.1172 52.0352 96.0352 51.7109 95.8711C51.3867 95.707 51.1309 95.4824 50.9434 95.1973C50.7559 94.9121 50.6621 94.5879 50.6621 94.2246C50.6621 93.8887 50.7246 93.5918 50.8496 93.334C50.9746 93.0762 51.1602 92.8594 51.4062 92.6836C51.6523 92.5039 51.957 92.3691 52.3203 92.2793C52.6875 92.1855 53.1074 92.1387 53.5801 92.1387H54.623ZM60.8457 94.2656C60.8457 94.1328 60.8105 94.0137 60.7402 93.9082C60.6699 93.8027 60.5371 93.707 60.3418 93.6211C60.1504 93.5312 59.8691 93.4473 59.498 93.3691C59.1699 93.2988 58.8672 93.2109 58.5898 93.1055C58.3125 93 58.0742 92.873 57.875 92.7246C57.6758 92.5723 57.5195 92.3945 57.4062 92.1914C57.2969 91.9844 57.2422 91.7461 57.2422 91.4766C57.2422 91.2148 57.2988 90.9688 57.4121 90.7383C57.5254 90.5039 57.6895 90.2988 57.9043 90.123C58.1191 89.9434 58.3809 89.8027 58.6895 89.7012C58.998 89.5957 59.3457 89.543 59.7324 89.543C60.2715 89.543 60.7344 89.6309 61.1211 89.8066C61.5117 89.9824 61.8105 90.2246 62.0176 90.5332C62.2246 90.8379 62.3281 91.1816 62.3281 91.5645H60.7812C60.7812 91.3965 60.7422 91.2441 60.6641 91.1074C60.5898 90.9707 60.4746 90.8613 60.3184 90.7793C60.1621 90.6934 59.9648 90.6504 59.7266 90.6504C59.5117 90.6504 59.3301 90.6855 59.1816 90.7559C59.0371 90.8262 58.9277 90.918 58.8535 91.0312C58.7793 91.1445 58.7422 91.2695 58.7422 91.4062C58.7422 91.5078 58.7617 91.5996 58.8008 91.6816C58.8438 91.7598 58.9121 91.832 59.0059 91.8984C59.0996 91.9648 59.2266 92.0254 59.3867 92.0801C59.5508 92.1348 59.752 92.1875 59.9902 92.2383C60.4629 92.332 60.875 92.457 61.2266 92.6133C61.582 92.7656 61.8594 92.9688 62.0586 93.2227C62.2578 93.4766 62.3574 93.8008 62.3574 94.1953C62.3574 94.4766 62.2969 94.7344 62.1758 94.9688C62.0547 95.1992 61.8789 95.4004 61.6484 95.5723C61.418 95.7441 61.1426 95.8789 60.8223 95.9766C60.502 96.0703 60.1406 96.1172 59.7383 96.1172C59.1562 96.1172 58.6641 96.0137 58.2617 95.8066C57.8594 95.5957 57.5547 95.3301 57.3477 95.0098C57.1406 94.6855 57.0371 94.3496 57.0371 94.002H58.5195C58.5312 94.248 58.5977 94.4453 58.7188 94.5938C58.8398 94.7422 58.9922 94.8496 59.1758 94.916C59.3633 94.9785 59.5605 95.0098 59.7676 95.0098C60.002 95.0098 60.1992 94.9785 60.3594 94.916C60.5195 94.8496 60.6406 94.7617 60.7227 94.6523C60.8047 94.5391 60.8457 94.4102 60.8457 94.2656ZM66.5352 89.6602V90.7734H62.9023V89.6602H66.5352ZM63.875 88.1016H65.4277V94.1719C65.4277 94.3594 65.4531 94.5039 65.5039 94.6055C65.5547 94.707 65.6309 94.7754 65.7324 94.8105C65.834 94.8457 65.9551 94.8633 66.0957 94.8633C66.1973 94.8633 66.291 94.8574 66.377 94.8457C66.4629 94.834 66.5352 94.8223 66.5938 94.8105L66.5996 95.9707C66.4707 96.0137 66.3242 96.0488 66.1602 96.0762C66 96.1035 65.8184 96.1172 65.6152 96.1172C65.2676 96.1172 64.9629 96.0586 64.7012 95.9414C64.4395 95.8203 64.2363 95.627 64.0918 95.3613C63.9473 95.0918 63.875 94.7363 63.875 94.2949V88.1016ZM71.0586 94.6523V91.7285C71.0586 91.5137 71.0215 91.3281 70.9473 91.1719C70.873 91.0156 70.7598 90.8945 70.6074 90.8086C70.4551 90.7227 70.2617 90.6797 70.0273 90.6797C69.8203 90.6797 69.6387 90.7148 69.4824 90.7852C69.3301 90.8555 69.2129 90.9551 69.1309 91.084C69.0488 91.209 69.0078 91.3535 69.0078 91.5176H67.4551C67.4551 91.2559 67.5176 91.0078 67.6426 90.7734C67.7676 90.5352 67.9453 90.3242 68.1758 90.1406C68.4102 89.9531 68.6895 89.8066 69.0137 89.7012C69.3418 89.5957 69.709 89.543 70.1152 89.543C70.5957 89.543 71.0234 89.625 71.3984 89.7891C71.7773 89.9492 72.0742 90.1914 72.2891 90.5156C72.5078 90.8398 72.6172 91.248 72.6172 91.7402V94.5059C72.6172 94.8223 72.6367 95.0938 72.6758 95.3203C72.7188 95.543 72.7812 95.7363 72.8633 95.9004V96H71.2871C71.2129 95.8398 71.1562 95.6367 71.1172 95.3906C71.0781 95.1406 71.0586 94.8945 71.0586 94.6523ZM71.2754 92.1387L71.2871 93.0586H70.3086C70.0664 93.0586 69.8535 93.084 69.6699 93.1348C69.4863 93.1816 69.3359 93.252 69.2188 93.3457C69.1016 93.4355 69.0137 93.5449 68.9551 93.6738C68.8965 93.7988 68.8672 93.9414 68.8672 94.1016C68.8672 94.2578 68.9023 94.3984 68.9727 94.5234C69.0469 94.6484 69.1523 94.748 69.2891 94.8223C69.4297 94.8926 69.5938 94.9277 69.7812 94.9277C70.0547 94.9277 70.293 94.873 70.4961 94.7637C70.6992 94.6504 70.8574 94.5137 70.9707 94.3535C71.084 94.1934 71.1445 94.041 71.1523 93.8965L71.5977 94.5645C71.543 94.7246 71.4609 94.8945 71.3516 95.0742C71.2422 95.2539 71.1016 95.4219 70.9297 95.5781C70.7578 95.7344 70.5508 95.8633 70.3086 95.9648C70.0664 96.0664 69.7852 96.1172 69.4648 96.1172C69.0547 96.1172 68.6875 96.0352 68.3633 95.8711C68.0391 95.707 67.7832 95.4824 67.5957 95.1973C67.4082 94.9121 67.3145 94.5879 67.3145 94.2246C67.3145 93.8887 67.377 93.5918 67.502 93.334C67.627 93.0762 67.8125 92.8594 68.0586 92.6836C68.3047 92.5039 68.6094 92.3691 68.9727 92.2793C69.3398 92.1855 69.7598 92.1387 70.2324 92.1387H71.2754ZM75.6523 87V96H74.0996V87H75.6523ZM37.7363 108.33L39.8633 101.469H41.6504L38.6387 110H37.4492L37.7363 108.33ZM35.7734 101.469L37.8887 108.33L38.1934 110H36.9922L33.9922 101.469H35.7734ZM41.8672 106.895V106.771C41.8672 106.307 41.9336 105.879 42.0664 105.488C42.1992 105.094 42.3926 104.752 42.6465 104.463C42.9004 104.174 43.2109 103.949 43.5781 103.789C43.9453 103.625 44.3633 103.543 44.832 103.543C45.3086 103.543 45.7305 103.625 46.0977 103.789C46.4688 103.949 46.7812 104.174 47.0352 104.463C47.2891 104.752 47.4824 105.094 47.6152 105.488C47.748 105.879 47.8145 106.307 47.8145 106.771V106.895C47.8145 107.355 47.748 107.783 47.6152 108.178C47.4824 108.568 47.2891 108.91 47.0352 109.203C46.7812 109.492 46.4707 109.717 46.1035 109.877C45.7363 110.037 45.3164 110.117 44.8438 110.117C44.375 110.117 43.9551 110.037 43.584 109.877C43.2129 109.717 42.9004 109.492 42.6465 109.203C42.3926 108.91 42.1992 108.568 42.0664 108.178C41.9336 107.783 41.8672 107.355 41.8672 106.895ZM43.4141 106.771V106.895C43.4141 107.172 43.4414 107.432 43.4961 107.674C43.5508 107.916 43.6348 108.129 43.748 108.312C43.8613 108.496 44.0078 108.641 44.1875 108.746C44.3711 108.848 44.5898 108.898 44.8438 108.898C45.0938 108.898 45.3086 108.848 45.4883 108.746C45.668 108.641 45.8145 108.496 45.9277 108.312C46.0449 108.129 46.1309 107.916 46.1855 107.674C46.2402 107.432 46.2676 107.172 46.2676 106.895V106.771C46.2676 106.498 46.2402 106.242 46.1855 106.004C46.1309 105.762 46.0449 105.549 45.9277 105.365C45.8145 105.178 45.666 105.031 45.4824 104.926C45.3027 104.816 45.0859 104.762 44.832 104.762C44.582 104.762 44.3672 104.816 44.1875 104.926C44.0078 105.031 43.8613 105.178 43.748 105.365C43.6348 105.549 43.5508 105.762 43.4961 106.004C43.4414 106.242 43.4141 106.498 43.4141 106.771ZM50.7031 109.297L52.4023 103.66H54.0605L51.5176 110.961C51.459 111.117 51.3828 111.287 51.2891 111.471C51.1992 111.654 51.0781 111.828 50.9258 111.992C50.7734 112.16 50.582 112.297 50.3516 112.402C50.125 112.508 49.8496 112.561 49.5254 112.561C49.3848 112.561 49.2598 112.551 49.1504 112.531C49.041 112.512 48.9258 112.486 48.8047 112.455V111.295C48.8438 111.299 48.8887 111.301 48.9395 111.301C48.9941 111.305 49.041 111.307 49.0801 111.307C49.3066 111.307 49.4941 111.279 49.6426 111.225C49.791 111.174 49.9102 111.09 50 110.973C50.0938 110.859 50.1719 110.711 50.2344 110.527L50.7031 109.297ZM49.8652 103.66L51.3008 108.33L51.5527 109.965L50.4863 110.158L48.1953 103.66H49.8652ZM58.209 108.652V105.729C58.209 105.514 58.1719 105.328 58.0977 105.172C58.0234 105.016 57.9102 104.895 57.7578 104.809C57.6055 104.723 57.4121 104.68 57.1777 104.68C56.9707 104.68 56.7891 104.715 56.6328 104.785C56.4805 104.855 56.3633 104.955 56.2812 105.084C56.1992 105.209 56.1582 105.354 56.1582 105.518H54.6055C54.6055 105.256 54.668 105.008 54.793 104.773C54.918 104.535 55.0957 104.324 55.3262 104.141C55.5605 103.953 55.8398 103.807 56.1641 103.701C56.4922 103.596 56.8594 103.543 57.2656 103.543C57.7461 103.543 58.1738 103.625 58.5488 103.789C58.9277 103.949 59.2246 104.191 59.4395 104.516C59.6582 104.84 59.7676 105.248 59.7676 105.74V108.506C59.7676 108.822 59.7871 109.094 59.8262 109.32C59.8691 109.543 59.9316 109.736 60.0137 109.9V110H58.4375C58.3633 109.84 58.3066 109.637 58.2676 109.391C58.2285 109.141 58.209 108.895 58.209 108.652ZM58.4258 106.139L58.4375 107.059H57.459C57.2168 107.059 57.0039 107.084 56.8203 107.135C56.6367 107.182 56.4863 107.252 56.3691 107.346C56.252 107.436 56.1641 107.545 56.1055 107.674C56.0469 107.799 56.0176 107.941 56.0176 108.102C56.0176 108.258 56.0527 108.398 56.123 108.523C56.1973 108.648 56.3027 108.748 56.4395 108.822C56.5801 108.893 56.7441 108.928 56.9316 108.928C57.2051 108.928 57.4434 108.873 57.6465 108.764C57.8496 108.65 58.0078 108.514 58.1211 108.354C58.2344 108.193 58.2949 108.041 58.3027 107.896L58.748 108.564C58.6934 108.725 58.6113 108.895 58.502 109.074C58.3926 109.254 58.252 109.422 58.0801 109.578C57.9082 109.734 57.7012 109.863 57.459 109.965C57.2168 110.066 56.9355 110.117 56.6152 110.117C56.2051 110.117 55.8379 110.035 55.5137 109.871C55.1895 109.707 54.9336 109.482 54.7461 109.197C54.5586 108.912 54.4648 108.588 54.4648 108.225C54.4648 107.889 54.5273 107.592 54.6523 107.334C54.7773 107.076 54.9629 106.859 55.209 106.684C55.4551 106.504 55.7598 106.369 56.123 106.279C56.4902 106.186 56.9102 106.139 57.3828 106.139H58.4258ZM65.1934 103.66H66.5996V109.807C66.5996 110.381 66.4746 110.867 66.2246 111.266C65.9785 111.668 65.6328 111.973 65.1875 112.18C64.7422 112.391 64.2246 112.496 63.6348 112.496C63.3809 112.496 63.1055 112.461 62.8086 112.391C62.5156 112.32 62.2324 112.209 61.959 112.057C61.6895 111.908 61.4648 111.715 61.2852 111.477L61.9824 110.562C62.1934 110.809 62.4316 110.994 62.6973 111.119C62.9629 111.248 63.25 111.312 63.5586 111.312C63.8711 111.312 64.1367 111.254 64.3555 111.137C64.5781 111.023 64.748 110.855 64.8652 110.633C64.9863 110.414 65.0469 110.145 65.0469 109.824V105.107L65.1934 103.66ZM60.9102 106.906V106.783C60.9102 106.299 60.9688 105.859 61.0859 105.465C61.2031 105.066 61.3711 104.725 61.5898 104.439C61.8125 104.154 62.0801 103.934 62.3926 103.777C62.709 103.621 63.0645 103.543 63.459 103.543C63.877 103.543 64.2285 103.619 64.5137 103.771C64.8027 103.924 65.041 104.141 65.2285 104.422C65.4199 104.703 65.5684 105.037 65.6738 105.424C65.7832 105.807 65.8672 106.229 65.9258 106.689V107.023C65.8711 107.473 65.7832 107.885 65.6621 108.26C65.5449 108.635 65.3887 108.963 65.1934 109.244C64.998 109.521 64.7559 109.736 64.4668 109.889C64.1777 110.041 63.8379 110.117 63.4473 110.117C63.0566 110.117 62.7051 110.037 62.3926 109.877C62.0801 109.717 61.8125 109.492 61.5898 109.203C61.3711 108.914 61.2031 108.574 61.0859 108.184C60.9688 107.793 60.9102 107.367 60.9102 106.906ZM62.457 106.783V106.906C62.457 107.18 62.4844 107.436 62.5391 107.674C62.5938 107.912 62.6777 108.123 62.791 108.307C62.9043 108.486 63.0469 108.627 63.2188 108.729C63.3906 108.83 63.5957 108.881 63.834 108.881C64.1543 108.881 64.416 108.814 64.6191 108.682C64.8262 108.545 64.9824 108.359 65.0879 108.125C65.1973 107.887 65.2676 107.619 65.2988 107.322V106.402C65.2793 106.168 65.2363 105.951 65.1699 105.752C65.1074 105.553 65.0195 105.381 64.9062 105.236C64.793 105.092 64.6484 104.979 64.4727 104.896C64.2969 104.814 64.0879 104.773 63.8457 104.773C63.6113 104.773 63.4062 104.826 63.2305 104.932C63.0547 105.033 62.9102 105.176 62.7969 105.359C62.6836 105.543 62.5977 105.756 62.5391 105.998C62.4844 106.24 62.457 106.502 62.457 106.783ZM70.8418 110.117C70.3613 110.117 69.9297 110.039 69.5469 109.883C69.1641 109.727 68.8379 109.51 68.5684 109.232C68.3027 108.951 68.0977 108.625 67.9531 108.254C67.8125 107.879 67.7422 107.477 67.7422 107.047V106.812C67.7422 106.324 67.8125 105.881 67.9531 105.482C68.0938 105.08 68.293 104.734 68.5508 104.445C68.8086 104.156 69.1172 103.934 69.4766 103.777C69.8359 103.621 70.2324 103.543 70.666 103.543C71.1152 103.543 71.5117 103.619 71.8555 103.771C72.1992 103.92 72.4863 104.131 72.7168 104.404C72.9473 104.678 73.1211 105.006 73.2383 105.389C73.3555 105.768 73.4141 106.188 73.4141 106.648V107.299H68.4453V106.232H71.8906V106.115C71.8828 105.869 71.8359 105.645 71.75 105.441C71.6641 105.234 71.5312 105.07 71.3516 104.949C71.1719 104.824 70.9395 104.762 70.6543 104.762C70.4238 104.762 70.2227 104.812 70.0508 104.914C69.8828 105.012 69.7422 105.152 69.6289 105.336C69.5195 105.516 69.4375 105.73 69.3828 105.98C69.3281 106.23 69.3008 106.508 69.3008 106.812V107.047C69.3008 107.312 69.3359 107.559 69.4062 107.785C69.4805 108.012 69.5879 108.209 69.7285 108.377C69.873 108.541 70.0449 108.67 70.2441 108.764C70.4473 108.854 70.6777 108.898 70.9355 108.898C71.2598 108.898 71.5527 108.836 71.8145 108.711C72.0801 108.582 72.3105 108.393 72.5059 108.143L73.2852 108.951C73.1523 109.146 72.9727 109.334 72.7461 109.514C72.5234 109.693 72.2539 109.84 71.9375 109.953C71.6211 110.062 71.2559 110.117 70.8418 110.117ZM75.998 104.955V110H74.4512V103.66H75.916L75.998 104.955ZM77.9258 103.619L77.9023 105.061C77.8164 105.045 77.7188 105.033 77.6094 105.025C77.5039 105.018 77.4043 105.014 77.3105 105.014C77.0723 105.014 76.8633 105.047 76.6836 105.113C76.5039 105.176 76.3535 105.268 76.2324 105.389C76.1152 105.51 76.0254 105.658 75.9629 105.834C75.9004 106.006 75.8652 106.201 75.8574 106.42L75.5234 106.379C75.5234 105.977 75.5645 105.604 75.6465 105.26C75.7285 104.916 75.8477 104.615 76.0039 104.357C76.1602 104.1 76.3555 103.9 76.5898 103.76C76.8281 103.615 77.1016 103.543 77.4102 103.543C77.4961 103.543 77.5879 103.551 77.6855 103.566C77.7871 103.578 77.8672 103.596 77.9258 103.619Z" fill="#402B09"/>
</g>
<defs>
<filter id="filter0_d_1569_9388" x="0" y="0" width="120" height="140" filterUnits="userSpaceOnUse" color-interpolation-filters="sRGB">
<feFlood flood-opacity="0" result="BackgroundImageFix"/>
<feColorMatrix in="SourceAlpha" type="matrix" values="0 0 0 0 0 0 0 0 0 0 0 0 0 0 0 0 0 0 127 0" result="hardAlpha"/>
<feOffset dx="4" dy="4"/>
<feGaussianBlur stdDeviation="5"/>
<feComposite in2="hardAlpha" operator="out"/>
<feColorMatrix type="matrix" values="0 0 0 0 0 0 0 0 0 0 0 0 0 0 0 0 0 0 0.1 0"/>
<feBlend mode="normal" in2="BackgroundImageFix" result="effect1_dropShadow_1569_9388"/>
<feBlend mode="normal" in="SourceGraphic" in2="effect1_dropShadow_1569_9388" result="shape"/>
</filter>
</defs>
</svg>
