<svg width="216" height="158" viewBox="0 0 216 158" fill="none" xmlns="http://www.w3.org/2000/svg">
<g filter="url(#filter0_d_400_8336)">
<rect x="16.5" y="16" width="175" height="118" rx="12" fill="#F8F9FA" shape-rendering="crispEdges"/>
<rect x="17" y="16.5" width="174" height="117" rx="11.5" stroke="#C5C4C7" shape-rendering="crispEdges"/>
<path d="M45.5 57.5C45.5 57.5 42.9285 58.5 42.5 62M59.5 57.5C59.5 57.5 62.0715 58.5 62.5 62M49.5 57.5C49.5 57.5 51.9 58.0835 52.5 61C53.1 58.0835 55.5 57.5 55.5 57.5M50.5 65C50.5 65 48.4 65.375 47.5 68M54.5 65C54.5 65 56.6 65.375 57.5 68" stroke="black" stroke-width="2" stroke-linecap="round"/>
<path d="M52.5 66C53.8807 66 55 64.8807 55 63.5C55 62.1193 53.8807 61 52.5 61C51.1193 61 50 62.1193 50 63.5C50 64.8807 51.1193 66 52.5 66Z" fill="black" stroke="black" stroke-width="2" stroke-linecap="round" stroke-linejoin="round"/>
<path d="M57.5 58C59.1569 58 60.5 56.6569 60.5 55C60.5 53.3431 59.1569 52 57.5 52C55.8431 52 54.5 53.3431 54.5 55C54.5 56.6569 55.8431 58 57.5 58Z" fill="black" stroke="black" stroke-width="2" stroke-linecap="round" stroke-linejoin="round"/>
<path d="M47.5 58C49.1569 58 50.5 56.6569 50.5 55C50.5 53.3431 49.1569 52 47.5 52C45.8431 52 44.5 53.3431 44.5 55C44.5 56.6569 45.8431 58 47.5 58Z" fill="black" stroke="black" stroke-width="2" stroke-linecap="round" stroke-linejoin="round"/>
<path d="M41.9091 96V84.3636H48.8864V85.6136H43.3182V89.5455H48.3636V90.7955H43.3182V96H41.9091ZM53.6861 96.2045C53.133 96.2045 52.6312 96.1004 52.1804 95.892C51.7296 95.6799 51.3717 95.375 51.1065 94.9773C50.8414 94.5758 50.7088 94.0909 50.7088 93.5227C50.7088 93.0227 50.8073 92.6174 51.0043 92.3068C51.2012 91.9924 51.4645 91.7462 51.794 91.5682C52.1236 91.3902 52.4872 91.2576 52.8849 91.1705C53.2865 91.0795 53.6899 91.0076 54.0952 90.9545C54.6255 90.8864 55.0554 90.8352 55.3849 90.8011C55.7183 90.7633 55.9607 90.7008 56.1122 90.6136C56.2675 90.5265 56.3452 90.375 56.3452 90.1591V90.1136C56.3452 89.553 56.1918 89.1174 55.8849 88.8068C55.5819 88.4962 55.1217 88.3409 54.5043 88.3409C53.8641 88.3409 53.3622 88.4811 52.9986 88.7614C52.6349 89.0417 52.3793 89.3409 52.2315 89.6591L50.9588 89.2045C51.1861 88.6742 51.4891 88.2614 51.8679 87.9659C52.2505 87.6667 52.6671 87.4583 53.1179 87.3409C53.5724 87.2197 54.0194 87.1591 54.4588 87.1591C54.7391 87.1591 55.0611 87.1932 55.4247 87.2614C55.7921 87.3258 56.1463 87.4602 56.4872 87.6648C56.8319 87.8693 57.1179 88.178 57.3452 88.5909C57.5724 89.0038 57.6861 89.5568 57.6861 90.25V96H56.3452V94.8182H56.277C56.1861 95.0076 56.0346 95.2102 55.8224 95.4261C55.6103 95.642 55.3281 95.8258 54.9759 95.9773C54.6236 96.1288 54.1937 96.2045 53.6861 96.2045ZM53.8906 95C54.4209 95 54.8679 94.8958 55.2315 94.6875C55.599 94.4792 55.8755 94.2102 56.0611 93.8807C56.2505 93.5511 56.3452 93.2045 56.3452 92.8409V91.6136C56.2884 91.6818 56.1634 91.7443 55.9702 91.8011C55.7808 91.8542 55.5611 91.9015 55.3111 91.9432C55.0649 91.9811 54.8243 92.0152 54.5895 92.0455C54.3584 92.072 54.1709 92.0947 54.027 92.1136C53.6785 92.1591 53.3527 92.233 53.0497 92.3352C52.7505 92.4337 52.508 92.5833 52.3224 92.7841C52.1406 92.9811 52.0497 93.25 52.0497 93.5909C52.0497 94.0568 52.2221 94.4091 52.5668 94.6477C52.9152 94.8826 53.3565 95 53.8906 95ZM60.1335 96V87.2727H61.429V88.6364H61.5426C61.7244 88.1705 62.018 87.8087 62.4233 87.5511C62.8286 87.2898 63.3153 87.1591 63.8835 87.1591C64.4593 87.1591 64.9384 87.2898 65.321 87.5511C65.7074 87.8087 66.0085 88.1705 66.2244 88.6364H66.3153C66.5388 88.1856 66.8741 87.8277 67.321 87.5625C67.768 87.2936 68.304 87.1591 68.929 87.1591C69.7093 87.1591 70.3475 87.4034 70.8438 87.892C71.34 88.3769 71.5881 89.1326 71.5881 90.1591V96H70.2472V90.1591C70.2472 89.5152 70.071 89.0549 69.7188 88.7784C69.3665 88.5019 68.9517 88.3636 68.4744 88.3636C67.8608 88.3636 67.3854 88.5492 67.0483 88.9205C66.7112 89.2879 66.5426 89.7538 66.5426 90.3182V96H65.179V90.0227C65.179 89.5265 65.018 89.1269 64.696 88.8239C64.3741 88.517 63.9593 88.3636 63.4517 88.3636C63.1032 88.3636 62.7775 88.4564 62.4744 88.642C62.1752 88.8277 61.9328 89.0852 61.7472 89.4148C61.5653 89.7405 61.4744 90.1174 61.4744 90.5455V96H60.1335ZM74.0398 96V87.2727H75.3807V96H74.0398ZM74.7216 85.8182C74.4602 85.8182 74.2348 85.7292 74.0455 85.5511C73.8598 85.3731 73.767 85.1591 73.767 84.9091C73.767 84.6591 73.8598 84.4451 74.0455 84.267C74.2348 84.089 74.4602 84 74.7216 84C74.983 84 75.2064 84.089 75.392 84.267C75.5814 84.4451 75.6761 84.6591 75.6761 84.9091C75.6761 85.1591 75.5814 85.3731 75.392 85.5511C75.2064 85.7292 74.983 85.8182 74.7216 85.8182ZM79.1776 84.3636V96H77.8366V84.3636H79.1776ZM82.4972 99.2727C82.2699 99.2727 82.0672 99.2538 81.8892 99.2159C81.7112 99.1818 81.5881 99.1477 81.5199 99.1136L81.8608 97.9318C82.1866 98.0152 82.4744 98.0455 82.7244 98.0227C82.9744 98 83.196 97.8883 83.3892 97.6875C83.5862 97.4905 83.7661 97.1705 83.929 96.7273L84.179 96.0455L80.9517 87.2727H82.4062L84.8153 94.2273H84.9062L87.3153 87.2727H88.7699L85.0653 97.2727C84.8987 97.7235 84.6922 98.0966 84.446 98.392C84.1998 98.6913 83.9138 98.9129 83.5881 99.0568C83.2661 99.2008 82.9025 99.2727 82.4972 99.2727ZM94.5852 85.6136V84.3636H103.312V85.6136H99.6534V96H98.2443V85.6136H94.5852ZM104.399 96V87.2727H105.695V88.5909H105.786C105.945 88.1591 106.232 87.8087 106.649 87.5398C107.066 87.2708 107.536 87.1364 108.058 87.1364C108.157 87.1364 108.28 87.1383 108.428 87.142C108.575 87.1458 108.687 87.1515 108.763 87.1591V88.5227C108.717 88.5114 108.613 88.4943 108.45 88.4716C108.291 88.4451 108.123 88.4318 107.945 88.4318C107.52 88.4318 107.142 88.5208 106.808 88.6989C106.479 88.8731 106.217 89.1155 106.024 89.4261C105.835 89.733 105.74 90.0833 105.74 90.4773V96H104.399ZM110.352 96V87.2727H111.693V96H110.352ZM111.034 85.8182C110.773 85.8182 110.547 85.7292 110.358 85.5511C110.172 85.3731 110.08 85.1591 110.08 84.9091C110.08 84.6591 110.172 84.4451 110.358 84.267C110.547 84.089 110.773 84 111.034 84C111.295 84 111.519 84.089 111.705 84.267C111.894 84.4451 111.989 84.6591 111.989 84.9091C111.989 85.1591 111.894 85.3731 111.705 85.5511C111.519 85.7292 111.295 85.8182 111.034 85.8182ZM114.149 99.2727V87.2727H115.445V88.6591H115.604C115.702 88.5076 115.839 88.3144 116.013 88.0795C116.191 87.8409 116.445 87.6288 116.774 87.4432C117.107 87.2538 117.558 87.1591 118.126 87.1591C118.861 87.1591 119.509 87.3428 120.07 87.7102C120.63 88.0777 121.068 88.5985 121.382 89.2727C121.696 89.947 121.854 90.7424 121.854 91.6591C121.854 92.5833 121.696 93.3845 121.382 94.0625C121.068 94.7367 120.632 95.2595 120.075 95.6307C119.518 95.9981 118.876 96.1818 118.149 96.1818C117.589 96.1818 117.14 96.089 116.803 95.9034C116.465 95.714 116.206 95.5 116.024 95.2614C115.842 95.0189 115.702 94.8182 115.604 94.6591H115.49V99.2727H114.149ZM115.467 91.6364C115.467 92.2955 115.564 92.8769 115.757 93.3807C115.95 93.8807 116.232 94.2727 116.604 94.5568C116.975 94.8371 117.429 94.9773 117.967 94.9773C118.528 94.9773 118.996 94.8295 119.371 94.5341C119.75 94.2348 120.034 93.8333 120.223 93.3295C120.416 92.822 120.513 92.2576 120.513 91.6364C120.513 91.0227 120.418 90.4697 120.229 89.9773C120.043 89.4811 119.761 89.089 119.382 88.8011C119.007 88.5095 118.536 88.3636 117.967 88.3636C117.422 88.3636 116.964 88.5019 116.592 88.7784C116.221 89.0511 115.941 89.4337 115.751 89.9261C115.562 90.4148 115.467 90.9848 115.467 91.6364Z" fill="black"/>
</g>
<defs>
<filter id="filter0_d_400_8336" x="0.5" y="0" width="215" height="158" filterUnits="userSpaceOnUse" color-interpolation-filters="sRGB">
<feFlood flood-opacity="0" result="BackgroundImageFix"/>
<feColorMatrix in="SourceAlpha" type="matrix" values="0 0 0 0 0 0 0 0 0 0 0 0 0 0 0 0 0 0 127 0" result="hardAlpha"/>
<feOffset dx="4" dy="4"/>
<feGaussianBlur stdDeviation="10"/>
<feComposite in2="hardAlpha" operator="out"/>
<feColorMatrix type="matrix" values="0 0 0 0 0 0 0 0 0 0 0 0 0 0 0 0 0 0 0.2 0"/>
<feBlend mode="normal" in2="BackgroundImageFix" result="effect1_dropShadow_400_8336"/>
<feBlend mode="normal" in="SourceGraphic" in2="effect1_dropShadow_400_8336" result="shape"/>
</filter>
</defs>
</svg>
