<svg width="640" height="640" viewBox="0 0 640 640" fill="none" xmlns="http://www.w3.org/2000/svg">
<rect width="640" height="640" rx="96" fill="white"/>
<mask id="mask0_700_62" style="mask-type:luminance" maskUnits="userSpaceOnUse" x="111" y="79" width="419" height="502">
<path d="M111.844 79.1589H529.063V580.841H111.844V79.1589Z" fill="white"/>
</mask>
<g mask="url(#mask0_700_62)">
<path d="M172.954 140.305C170.542 142.716 168.188 145.185 165.896 147.716C163.605 150.242 161.381 152.826 159.214 155.461C157.053 158.097 154.954 160.789 152.923 163.529C150.886 166.268 148.923 169.055 147.027 171.893C145.131 174.727 143.308 177.612 141.553 180.534C139.803 183.461 138.12 186.43 136.511 189.44C134.902 192.445 133.37 195.492 131.912 198.576C130.454 201.659 129.074 204.779 127.766 207.93C126.459 211.081 125.235 214.263 124.084 217.477C122.933 220.69 121.865 223.925 120.876 227.19C119.886 230.456 118.975 233.742 118.146 237.05C117.318 240.362 116.568 243.69 115.902 247.034C115.24 250.383 114.657 253.742 114.157 257.117C113.652 260.492 113.235 263.873 112.902 267.268C112.568 270.664 112.318 274.065 112.152 277.472C111.98 280.883 111.896 284.289 111.896 287.701C111.896 291.112 111.98 294.524 112.152 297.93C112.318 301.336 112.568 304.737 112.902 308.133C113.235 311.529 113.652 314.914 114.157 318.289C114.657 321.664 115.24 325.024 115.902 328.367C116.568 331.716 117.318 335.044 118.146 338.352C118.975 341.659 119.886 344.945 120.876 348.211C121.865 351.477 122.933 354.716 124.084 357.925C125.235 361.138 126.459 364.32 127.766 367.472C129.074 370.623 130.454 373.742 131.912 376.826C133.37 379.909 134.902 382.956 136.511 385.966C138.12 388.972 139.803 391.94 141.553 394.867C143.308 397.794 145.131 400.675 147.027 403.513C148.923 406.347 150.886 409.138 152.923 411.878C154.954 414.617 157.053 417.305 159.214 419.94C161.381 422.581 163.605 425.159 165.896 427.69C168.188 430.216 170.542 432.685 172.954 435.102L320.35 582.498L377.584 525.258L230.188 377.862C228.714 376.388 227.277 374.878 225.876 373.331C224.469 371.784 223.11 370.206 221.787 368.591C220.459 366.977 219.178 365.336 217.933 363.659C216.693 361.982 215.49 360.274 214.329 358.539C213.173 356.805 212.058 355.044 210.985 353.253C209.912 351.466 208.881 349.649 207.896 347.81C206.912 345.966 205.975 344.107 205.084 342.216C204.193 340.331 203.344 338.425 202.548 336.498C201.751 334.57 201.001 332.623 200.298 330.659C199.594 328.695 198.938 326.711 198.334 324.716C197.725 322.716 197.173 320.706 196.662 318.685C196.157 316.659 195.699 314.623 195.292 312.576C194.886 310.529 194.527 308.477 194.219 306.409C193.917 304.347 193.662 302.279 193.454 300.201C193.251 298.123 193.1 296.044 192.995 293.956C192.891 291.873 192.839 289.789 192.839 287.701C192.839 285.617 192.891 283.529 192.995 281.445C193.1 279.362 193.251 277.279 193.454 275.206C193.662 273.128 193.917 271.055 194.219 268.992C194.527 266.93 194.886 264.873 195.292 262.826C195.699 260.779 196.157 258.742 196.662 256.722C197.173 254.695 197.725 252.685 198.334 250.69C198.938 248.69 199.594 246.711 200.298 244.748C201.001 242.779 201.751 240.836 202.548 238.909C203.344 236.977 204.193 235.07 205.084 233.185C205.975 231.3 206.912 229.435 207.896 227.597C208.881 225.753 209.912 223.94 210.985 222.149C212.058 220.362 213.173 218.597 214.329 216.862C215.49 215.128 216.693 213.419 217.933 211.748C219.178 210.07 220.459 208.425 221.787 206.81C223.11 205.201 224.469 203.617 225.876 202.076C227.277 200.529 228.714 199.018 230.188 197.539C231.662 196.065 233.178 194.628 234.719 193.227C236.266 191.826 237.85 190.461 239.459 189.138C241.074 187.815 242.719 186.529 244.396 185.289C246.068 184.044 247.777 182.841 249.511 181.685C251.245 180.524 253.006 179.409 254.798 178.336C256.589 177.263 258.402 176.237 260.245 175.253C262.084 174.268 263.949 173.331 265.834 172.44C267.719 171.544 269.626 170.701 271.553 169.904C273.485 169.102 275.428 168.352 277.391 167.649C279.36 166.945 281.339 166.294 283.334 165.685C285.334 165.081 287.344 164.524 289.365 164.018C291.391 163.513 293.428 163.055 295.475 162.649C297.521 162.242 299.574 161.883 301.641 161.576C303.704 161.274 305.777 161.018 307.85 160.81C309.928 160.607 312.006 160.456 314.094 160.352C316.178 160.248 318.261 160.201 320.35 160.201C322.433 160.201 324.521 160.248 326.605 160.352C328.688 160.456 330.771 160.607 332.844 160.81C334.923 161.018 336.995 161.274 339.058 161.581C341.12 161.883 343.178 162.242 345.225 162.649C347.271 163.055 349.303 163.513 351.329 164.018C353.355 164.529 355.365 165.086 357.36 165.69C359.36 166.294 361.339 166.951 363.303 167.654C365.266 168.357 367.214 169.107 369.141 169.904C371.068 170.706 372.975 171.55 374.865 172.44C376.751 173.336 378.61 174.274 380.454 175.253C382.292 176.237 384.11 177.268 385.896 178.341C387.688 179.414 389.449 180.529 391.183 181.69C392.923 182.847 394.626 184.05 396.303 185.294C397.98 186.534 399.62 187.82 401.235 189.143C402.85 190.466 404.428 191.831 405.975 193.232C407.521 194.633 409.032 196.07 410.506 197.544C411.98 199.018 413.423 200.534 414.824 202.076C416.225 203.623 417.584 205.206 418.907 206.815C420.23 208.43 421.516 210.076 422.756 211.748C424.001 213.425 425.204 215.133 426.36 216.867C427.521 218.602 428.636 220.362 429.709 222.154C430.782 223.945 431.808 225.758 432.792 227.597C433.777 229.44 434.714 231.305 435.61 233.19C436.501 235.076 437.344 236.982 438.141 238.909C438.943 240.836 439.693 242.784 440.396 244.748C441.1 246.711 441.751 248.695 442.36 250.69C442.964 252.685 443.521 254.695 444.027 256.722C444.537 258.748 444.99 260.779 445.396 262.826C445.808 264.873 446.162 266.93 446.469 268.992C446.777 271.06 447.032 273.128 447.235 275.206C447.438 277.279 447.594 279.362 447.693 281.445C447.798 283.529 447.85 285.617 447.85 287.701C447.85 289.789 447.798 291.873 447.693 293.956C447.594 296.044 447.438 298.123 447.235 300.201C447.032 302.274 446.777 304.347 446.469 306.409C446.162 308.472 445.808 310.529 445.396 312.576C444.99 314.623 444.537 316.659 444.027 318.68C443.521 320.706 442.964 322.716 442.36 324.711C441.751 326.711 441.1 328.69 440.396 330.654C439.693 332.617 438.943 334.565 438.141 336.492C437.344 338.419 436.501 340.331 435.61 342.216C434.714 344.102 433.777 345.966 432.792 347.805C431.808 349.643 430.782 351.461 429.709 353.248C428.636 355.039 427.521 356.8 426.36 358.539C425.204 360.274 424.001 361.977 422.756 363.654C421.516 365.331 420.23 366.972 418.907 368.586C417.584 370.201 416.225 371.779 414.824 373.326C413.417 374.873 411.98 376.383 410.506 377.857C405.068 383.289 399.188 388.185 392.865 392.555C386.542 396.919 379.876 400.685 372.876 403.847C365.87 407.008 358.641 409.518 351.183 411.373C343.725 413.227 336.162 414.399 328.49 414.883L408.225 494.617L467.745 435.102C470.162 432.685 472.511 430.216 474.803 427.69C477.094 425.159 479.324 422.581 481.485 419.94C483.652 417.305 485.745 414.617 487.782 411.878C489.813 409.138 491.777 406.347 493.673 403.513C495.568 400.675 497.391 397.794 499.146 394.867C500.896 391.94 502.579 388.972 504.188 385.966C505.798 382.956 507.329 379.909 508.787 376.826C510.245 373.742 511.631 370.623 512.933 367.472C514.24 364.32 515.469 361.138 516.615 357.925C517.766 354.716 518.834 351.477 519.824 348.211C520.818 344.945 521.725 341.659 522.553 338.352C523.381 335.044 524.131 331.716 524.798 328.367C525.464 325.024 526.042 321.664 526.548 318.289C527.048 314.914 527.464 311.529 527.798 308.133C528.131 304.737 528.381 301.336 528.553 297.93C528.719 294.524 528.803 291.112 528.803 287.701C528.803 284.289 528.719 280.883 528.553 277.472C528.381 274.065 528.131 270.664 527.798 267.268C527.464 263.873 527.048 260.492 526.548 257.117C526.042 253.742 525.464 250.383 524.798 247.034C524.131 243.69 523.386 240.362 522.553 237.05C521.725 233.742 520.818 230.456 519.824 227.19C518.834 223.925 517.766 220.69 516.615 217.477C515.469 214.263 514.24 211.081 512.933 207.93C511.631 204.779 510.245 201.659 508.787 198.576C507.329 195.492 505.798 192.445 504.188 189.44C502.579 186.43 500.896 183.461 499.146 180.534C497.391 177.612 495.568 174.727 493.673 171.893C491.777 169.055 489.813 166.268 487.782 163.529C485.745 160.789 483.652 158.097 481.485 155.461C479.324 152.826 477.094 150.242 474.803 147.716C472.511 145.185 470.162 142.716 467.745 140.305C465.334 137.893 462.865 135.539 460.339 133.248C457.808 130.956 455.23 128.732 452.589 126.565C449.954 124.404 447.266 122.305 444.527 120.274C441.782 118.237 438.995 116.274 436.157 114.383C433.324 112.487 430.443 110.659 427.516 108.909C424.589 107.154 421.62 105.472 418.615 103.862C415.605 102.258 412.558 100.722 409.475 99.2632C406.391 97.8049 403.271 96.4246 400.12 95.1174C396.969 93.8101 393.787 92.5861 390.574 91.4351C387.365 90.284 384.126 89.2163 380.86 88.2267C377.594 87.2371 374.308 86.3257 371.001 85.4976C367.688 84.6694 364.365 83.9194 361.016 83.2528C357.673 82.5913 354.313 82.008 350.938 81.508C347.563 81.008 344.178 80.5861 340.782 80.2528C337.386 79.9194 333.985 79.6694 330.579 79.5028C327.173 79.3361 323.761 79.2476 320.35 79.2476C316.938 79.2476 313.527 79.3361 310.12 79.5028C306.714 79.6694 303.313 79.9194 299.917 80.2528C296.521 80.5861 293.136 81.008 289.766 81.508C286.391 82.008 283.027 82.5913 279.683 83.2528C276.339 83.9194 273.011 84.6694 269.699 85.4976C266.391 86.3257 263.105 87.2371 259.839 88.2267C256.574 89.2163 253.339 90.284 250.126 91.4351C246.912 92.5861 243.73 93.8101 240.579 95.1174C237.428 96.4246 234.308 97.8049 231.225 99.2632C228.141 100.722 225.094 102.258 222.089 103.862C219.079 105.472 216.11 107.154 213.183 108.909C210.256 110.659 207.376 112.487 204.542 114.383C201.704 116.274 198.917 118.237 196.178 120.274C193.433 122.305 190.745 124.404 188.11 126.565C185.475 128.732 182.891 130.956 180.36 133.248C177.834 135.539 175.365 137.893 172.954 140.305Z" fill="#402B09"/>
</g>
<path d="M313.999 205.371C308.994 205.73 304.056 206.532 299.186 207.772C294.322 209.017 289.603 210.678 285.035 212.767C280.468 214.85 276.124 217.329 271.999 220.189C267.874 223.053 264.035 226.262 260.483 229.814C258.895 231.402 257.369 233.053 255.915 234.767C254.457 236.48 253.072 238.246 251.754 240.069C250.442 241.892 249.202 243.767 248.035 245.689C246.869 247.611 245.785 249.574 244.775 251.585C243.77 253.595 242.843 255.642 241.999 257.725C241.155 259.808 240.395 261.923 239.723 264.064C239.046 266.21 238.462 268.376 237.957 270.569C237.457 272.762 237.046 274.97 236.723 277.194C236.4 279.418 236.165 281.652 236.02 283.892C235.874 286.137 235.822 288.381 235.853 290.631C235.889 292.876 236.014 295.121 236.228 297.355C236.442 299.595 236.749 301.819 237.139 304.032C237.535 306.246 238.014 308.439 238.582 310.616C239.15 312.793 239.806 314.939 240.546 317.064C241.29 319.184 242.113 321.272 243.02 323.329C243.931 325.387 244.921 327.402 245.988 329.376L298.212 263.918L331.478 314.204L356.817 283.855L393.389 330.496C394.504 328.517 395.535 326.491 396.483 324.423C397.431 322.355 398.296 320.251 399.072 318.116C399.853 315.98 400.54 313.814 401.145 311.621C401.749 309.428 402.259 307.215 402.686 304.975C403.108 302.741 403.442 300.496 403.681 298.236C403.921 295.97 404.072 293.704 404.129 291.428C404.186 289.157 404.15 286.881 404.025 284.611C403.895 282.34 403.676 280.079 403.369 277.824C403.056 275.574 402.655 273.335 402.165 271.116C401.671 268.897 401.093 266.699 400.421 264.522C399.754 262.35 398.994 260.21 398.15 258.095C397.306 255.986 396.379 253.907 395.369 251.871C394.358 249.835 393.264 247.84 392.093 245.892C390.915 243.944 389.665 242.048 388.343 240.199C387.014 238.35 385.613 236.564 384.139 234.829C382.671 233.095 381.129 231.423 379.52 229.814C377.395 227.689 375.16 225.678 372.817 223.793C370.478 221.907 368.04 220.147 365.509 218.522C362.978 216.897 360.369 215.407 357.681 214.064C354.988 212.715 352.238 211.517 349.421 210.465C346.603 209.418 343.733 208.517 340.822 207.772C337.905 207.032 334.962 206.444 331.983 206.017C329.004 205.59 326.014 205.319 323.009 205.215C320.004 205.105 316.999 205.157 313.999 205.371Z" fill="#F86F0A"/>
</svg>
