<svg width="12" height="13" viewBox="0 0 12 13" fill="none" xmlns="http://www.w3.org/2000/svg">
<path d="M2.9061 5.67367C2.95688 5.67367 3.01352 5.68149 3.07602 5.69711C3.13852 5.71274 3.20102 5.73422 3.26352 5.76156C3.32602 5.78891 3.38852 5.8143 3.45102 5.83774C3.51352 5.86117 3.57016 5.88461 3.62094 5.90805L3.52719 5.91977C3.49594 5.92367 3.46274 5.92563 3.42758 5.92563C3.36118 5.92563 3.30063 5.91586 3.24594 5.89633C3.19126 5.8768 3.14047 5.85141 3.0936 5.82016C3.04672 5.78891 2.99985 5.76547 2.95297 5.74985C2.9061 5.73422 2.86313 5.7225 2.82407 5.71469C2.78501 5.71469 2.74985 5.7225 2.7186 5.73813C2.68735 5.75375 2.6561 5.77133 2.62485 5.79086C2.62485 5.77524 2.61118 5.76742 2.58383 5.76742C2.61118 5.74008 2.66196 5.7186 2.73618 5.70297C2.8104 5.68735 2.86704 5.67758 2.9061 5.67367ZM3.69711 5.93735C3.85727 5.93735 4.00376 5.96469 4.13657 6.01938C4.08188 6.03891 4.02719 6.05453 3.97251 6.06625C3.91782 6.07797 3.86118 6.08578 3.80258 6.08969C3.72446 6.08969 3.65415 6.08188 3.59165 6.06625C3.61118 6.035 3.63071 6.01547 3.65024 6.00766C3.66977 5.99985 3.6854 5.97641 3.69711 5.93735ZM5.99985 0.499845C6.55063 0.499845 7.07993 0.572111 7.58774 0.716642C8.09555 0.861173 8.57211 1.06235 9.01743 1.32016C9.46274 1.57797 9.86899 1.89242 10.2362 2.26352C10.6034 2.63461 10.9159 3.03891 11.1737 3.47641C11.4315 3.91391 11.6346 4.39047 11.7831 4.9061C11.9315 5.42172 12.0038 5.95297 11.9998 6.49985C11.9998 7.05063 11.9276 7.57992 11.7831 8.08774C11.6385 8.59555 11.4373 9.07211 11.1795 9.51742C10.9217 9.96274 10.6073 10.369 10.2362 10.7362C9.86508 11.1034 9.46079 11.4159 9.02329 11.6737C8.58579 11.9315 8.10922 12.1346 7.5936 12.283C7.07797 12.4315 6.54672 12.5038 5.99985 12.4998C5.44907 12.4998 4.91977 12.4276 4.41196 12.283C3.90415 12.1385 3.42758 11.9373 2.98227 11.6795C2.53696 11.4217 2.13071 11.1073 1.76352 10.7362C1.39633 10.3651 1.08383 9.96078 0.826021 9.52328C0.568208 9.08578 0.365083 8.60922 0.216646 8.0936C0.0682083 7.57797 -0.00405737 7.04672 -0.000151121 6.49985C-0.000151121 5.94906 0.0721145 5.41977 0.216646 4.91195C0.361177 4.40414 0.562349 3.92758 0.820161 3.48227C1.07797 3.03695 1.39243 2.6307 1.76352 2.26352C2.13461 1.89633 2.53891 1.58383 2.97641 1.32602C3.41391 1.0682 3.89047 0.865079 4.4061 0.716642C4.92172 0.568204 5.45297 0.495939 5.99985 0.499845ZM10.4647 3.7518C10.41 3.66586 10.3553 3.58383 10.3006 3.5057C10.2459 3.42758 10.1893 3.3475 10.1307 3.26547C10.1229 3.30063 10.1131 3.32602 10.1014 3.34164C10.0897 3.35727 10.0819 3.39242 10.078 3.44711C10.078 3.48227 10.0916 3.51547 10.119 3.54672C10.1463 3.57797 10.1815 3.60922 10.2245 3.64047C10.2674 3.67172 10.3104 3.69516 10.3534 3.71078C10.3963 3.72641 10.4334 3.74008 10.4647 3.7518ZM10.0604 3.17758C10.0604 3.20883 10.0545 3.23031 10.0428 3.24203H10.078C10.0936 3.24203 10.1053 3.24399 10.1131 3.24789L10.0604 3.17758ZM5.99985 11.7498C6.44516 11.7498 6.88071 11.6932 7.30649 11.5799C7.73227 11.4666 8.13461 11.3065 8.51352 11.0995C8.89243 10.8924 9.24399 10.6385 9.56821 10.3377C9.89243 10.037 10.1756 9.70102 10.4178 9.32992C10.367 9.21274 10.3182 9.09359 10.2713 8.9725C10.2245 8.85141 10.201 8.72641 10.201 8.5975C10.201 8.45688 10.2069 8.3436 10.2186 8.25766C10.2303 8.17172 10.244 8.09555 10.2596 8.02914C10.2752 7.96274 10.2831 7.9061 10.2831 7.85922C10.2831 7.81235 10.2772 7.7518 10.2655 7.67758C10.2538 7.60336 10.2206 7.52328 10.1659 7.43735C10.1112 7.35141 10.0389 7.23031 9.94907 7.07406C9.95297 7.04672 9.95883 7.00961 9.96665 6.96274C9.97446 6.91586 9.98227 6.86703 9.99008 6.81625C9.9979 6.76547 9.99985 6.7186 9.99594 6.67563C9.99204 6.63266 9.98227 6.59555 9.96665 6.5643C9.86508 6.55258 9.75961 6.5311 9.65024 6.49985C9.54086 6.4686 9.44321 6.42172 9.35727 6.35922L9.39243 6.32992C9.34165 6.34164 9.29086 6.35727 9.24008 6.3768C9.1893 6.39633 9.14047 6.41781 9.0936 6.44125C9.04672 6.46469 8.99594 6.48031 8.94126 6.48813C8.88657 6.49594 8.83383 6.50375 8.78305 6.51156L8.6893 6.49985L8.70688 6.45883C8.65219 6.47445 8.5936 6.49399 8.5311 6.51742C8.4686 6.54086 8.40805 6.55258 8.34946 6.55258C8.3104 6.55258 8.25376 6.53891 8.17954 6.51156C8.10532 6.48422 8.0311 6.45102 7.95688 6.41195C7.88266 6.37289 7.81626 6.32992 7.75766 6.28305C7.69907 6.23617 7.66977 6.19125 7.66977 6.14828L7.68149 6.1307C7.66196 6.10727 7.63657 6.08578 7.60532 6.06625C7.57407 6.04672 7.54477 6.02719 7.51743 6.00766C7.49008 5.98813 7.46469 5.96664 7.44126 5.9432C7.41782 5.91977 7.40805 5.89242 7.41196 5.86117L7.47641 5.80844L7.34165 5.79086L7.29477 5.61508C7.30258 5.63461 7.32016 5.64242 7.34751 5.63852C7.37485 5.63461 7.39633 5.6268 7.41196 5.61508L7.20102 5.50375L7.34751 5.12875C7.29282 4.92563 7.27915 4.76938 7.30649 4.66C7.33383 4.55063 7.38657 4.46078 7.46469 4.39047C7.54282 4.32016 7.62876 4.24985 7.72251 4.17953C7.81626 4.10922 7.91196 4.01352 8.00961 3.89242L7.99204 3.82211L8.37876 3.35336L8.46665 3.34164C8.57602 3.34164 8.69907 3.33774 8.83579 3.32992C8.97251 3.32211 9.11118 3.30844 9.2518 3.28891C9.39243 3.26938 9.5311 3.24985 9.66782 3.23031C9.80454 3.21078 9.92954 3.18539 10.0428 3.15414C9.91782 3.0057 9.78696 2.86508 9.65024 2.73227C9.51352 2.59945 9.36704 2.4725 9.21079 2.35141C9.16782 2.36703 9.11508 2.38852 9.05258 2.41586C8.99008 2.4432 8.92758 2.47836 8.86508 2.52133C8.80258 2.5643 8.75376 2.61117 8.7186 2.66195C8.68344 2.71274 8.66196 2.76547 8.65415 2.82016L8.6893 2.93149C8.61899 3.04477 8.54086 3.11508 8.45493 3.14242C8.36899 3.16977 8.2811 3.18539 8.19126 3.1893C8.10141 3.1932 8.00766 3.1932 7.91001 3.1893C7.81235 3.18539 7.7186 3.20297 7.62876 3.24203L7.53501 3.04281L7.6229 2.70297L7.52329 2.55649L8.53696 2.24008C8.49399 2.1307 8.42368 2.04867 8.32602 1.99399C8.22836 1.9393 8.12094 1.91195 8.00376 1.91195V1.85336L8.33188 1.80063C7.9686 1.62094 7.59165 1.48422 7.20102 1.39047C6.8104 1.29672 6.41001 1.24985 5.99985 1.24985C5.66001 1.24985 5.32407 1.28305 4.99204 1.34945C4.66001 1.41586 4.33969 1.51156 4.0311 1.63656C3.72251 1.76156 3.42368 1.91781 3.13461 2.10531C2.84555 2.29281 2.58188 2.50375 2.3436 2.73813C2.44516 2.73813 2.52329 2.76352 2.57797 2.8143C2.63266 2.86508 2.68344 2.92172 2.73032 2.98422C2.77719 3.04672 2.82602 3.10336 2.8768 3.15414C2.92758 3.20492 2.99594 3.23227 3.08188 3.23617L3.17563 3.16586L3.16391 3.03695L3.35727 2.76156L3.20493 2.32797C3.22446 2.31625 3.25376 2.29672 3.29282 2.26938C3.33188 2.24203 3.36508 2.22836 3.39243 2.22836C3.50961 2.22836 3.59946 2.23422 3.66196 2.24594C3.72446 2.25766 3.77915 2.27914 3.82602 2.31039C3.8729 2.34164 3.91391 2.38656 3.94907 2.44516C3.98422 2.50375 4.03891 2.57797 4.11313 2.66781L4.32407 2.50375C4.36313 2.51938 4.42563 2.54477 4.51157 2.57992C4.59751 2.61508 4.6854 2.65805 4.77524 2.70883C4.86508 2.75961 4.94126 2.81235 5.00376 2.86703C5.06626 2.92172 5.09946 2.9725 5.10336 3.01938C5.10336 3.07797 5.08188 3.12485 5.03891 3.16C4.99594 3.19516 4.9393 3.22445 4.86899 3.24789C4.79868 3.27133 4.72641 3.28891 4.65219 3.30063C4.57797 3.31235 4.50376 3.32797 4.42954 3.3475C4.35532 3.36703 4.29868 3.38656 4.25961 3.4061C4.22055 3.42563 4.19711 3.45883 4.1893 3.5057L4.52915 3.61703C4.45102 3.68344 4.36704 3.74399 4.27719 3.79867C4.18735 3.85336 4.0936 3.90414 3.99594 3.95102L4.01938 4.05063L3.48032 4.26156V4.42563L3.4393 4.4432L3.4686 4.23813L3.44516 4.23227C3.41782 4.23227 3.40219 4.23813 3.39829 4.24985C3.39438 4.26156 3.39243 4.27524 3.39243 4.29086C3.39243 4.30649 3.39633 4.32211 3.40415 4.33774C3.41196 4.35336 3.41391 4.36508 3.41001 4.37289L3.33383 4.33188L3.34555 4.35531C3.34555 4.36703 3.35141 4.38461 3.36313 4.40805C3.37485 4.43149 3.39047 4.45297 3.41001 4.4725C3.42954 4.49203 3.44516 4.51156 3.45688 4.5311C3.4686 4.55063 3.47641 4.56039 3.48032 4.56039C3.48032 4.57211 3.47251 4.58383 3.45688 4.59555C3.44126 4.60727 3.42172 4.61508 3.39829 4.61899C3.37485 4.62289 3.35922 4.62875 3.35141 4.63656C3.3436 4.64438 3.3436 4.64633 3.35141 4.64242C3.4061 4.64242 3.41782 4.64633 3.38657 4.65414C3.35532 4.66195 3.30649 4.68149 3.24008 4.71274C3.17368 4.74399 3.11313 4.78891 3.05844 4.8475C3.00376 4.9061 2.97251 4.99203 2.96469 5.10531C2.96469 5.17172 2.96665 5.23617 2.97055 5.29867C2.97446 5.36117 2.97251 5.42563 2.96469 5.49203C2.91001 5.3436 2.82797 5.23031 2.7186 5.15219C2.60922 5.07406 2.47641 5.035 2.32016 5.035L2.06821 5.05844L2.19126 5.14047C2.12485 5.13266 2.05649 5.12485 1.98618 5.11703C1.91586 5.10922 1.8436 5.10727 1.76938 5.11117C1.69516 5.11508 1.62876 5.1307 1.57016 5.15805C1.51157 5.18539 1.45297 5.22641 1.39438 5.2811L1.35922 5.54477C1.35922 5.66977 1.38657 5.77133 1.44126 5.84945C1.49594 5.92758 1.59165 5.9686 1.72836 5.9725C1.84555 5.9725 1.96079 5.95492 2.07407 5.91977C2.18735 5.88461 2.29868 5.8436 2.40805 5.79672C2.3729 5.88266 2.33383 5.96469 2.29086 6.04281C2.2479 6.12094 2.21665 6.20688 2.19711 6.30063L2.27329 6.33578C2.36704 6.27328 2.45297 6.26352 2.5311 6.30649C2.60922 6.34945 2.6854 6.41195 2.75961 6.49399C2.83383 6.57602 2.91001 6.66 2.98813 6.74594C3.06626 6.83188 3.15024 6.89438 3.24008 6.93344L3.04086 7.03891L2.57211 6.77524C2.57602 6.78305 2.57993 6.80063 2.58383 6.82797C2.58774 6.85531 2.58579 6.86117 2.57797 6.84555L2.36704 6.48813C2.24204 6.48422 2.10922 6.46469 1.9686 6.42953C1.82797 6.39438 1.6854 6.3475 1.54086 6.28891C1.39633 6.23031 1.26157 6.16586 1.13657 6.09555C1.01157 6.02524 0.896333 5.95102 0.790864 5.87289L0.749849 6.49985C0.749849 6.97641 0.814302 7.44125 0.943208 7.89438C1.07211 8.3475 1.25376 8.77328 1.48813 9.17172C1.72251 9.57016 2.00961 9.93344 2.34946 10.2616C2.6893 10.5897 3.06626 10.869 3.48032 11.0995C3.46079 11.0174 3.45883 10.9354 3.47446 10.8534C3.49008 10.7713 3.50961 10.6893 3.53305 10.6073C3.55649 10.5252 3.58188 10.4432 3.60922 10.3612C3.63657 10.2791 3.65024 10.1952 3.65024 10.1092C3.65024 9.98422 3.63071 9.85336 3.59165 9.71664C3.55258 9.57992 3.50571 9.44125 3.45102 9.30063C3.39633 9.16 3.33579 9.02133 3.26938 8.88461C3.20297 8.74789 3.15024 8.61899 3.11118 8.49789C3.07211 8.3768 3.04086 8.26352 3.01743 8.15805C2.99399 8.05258 3.00571 7.96078 3.05258 7.88266L2.96469 7.84164C2.98813 7.78695 3.01938 7.73422 3.05844 7.68344C3.09751 7.63266 3.13852 7.58188 3.18149 7.5311C3.22446 7.48031 3.25766 7.42563 3.2811 7.36703C3.30454 7.30844 3.31821 7.24985 3.32211 7.19125C3.32211 7.15219 3.3143 7.11117 3.29868 7.0682C3.28305 7.02524 3.26938 6.98422 3.25766 6.94516L3.38071 6.97445C3.44711 6.82211 3.53696 6.7186 3.65024 6.66391C3.76352 6.60922 3.9061 6.57992 4.07797 6.57602C4.09751 6.57602 4.13852 6.58383 4.20102 6.59945C4.26352 6.61508 4.32993 6.63656 4.40024 6.66391C4.47055 6.69125 4.53696 6.71274 4.59946 6.72836C4.66196 6.74399 4.70883 6.75961 4.74008 6.77524C4.74008 6.80258 4.75571 6.82016 4.78696 6.82797C4.81821 6.83578 4.83579 6.84945 4.83969 6.86899L4.82797 6.91586C4.83969 6.91977 4.86704 6.93344 4.91001 6.95688C4.95297 6.98031 4.99985 7.00961 5.05063 7.04477C5.10141 7.07992 5.14633 7.11117 5.1854 7.13852C5.22446 7.16586 5.2518 7.18735 5.26743 7.20297C5.33774 7.20297 5.43344 7.22641 5.55454 7.27328C5.67563 7.32016 5.80844 7.37875 5.95297 7.44906C6.09751 7.51938 6.24008 7.60336 6.38071 7.70102C6.52133 7.79867 6.65415 7.89633 6.77915 7.99399C6.90415 8.09164 6.99985 8.1893 7.06626 8.28695C7.13266 8.38461 7.17172 8.47055 7.18344 8.54477L6.98422 8.7557C6.99985 8.95492 6.98618 9.10727 6.94321 9.21274C6.90024 9.3182 6.83383 9.4061 6.74399 9.47641C6.65415 9.54672 6.55063 9.60531 6.43344 9.65219C6.31626 9.69906 6.1893 9.76547 6.05258 9.85141C6.05258 9.92953 6.03305 10.0135 5.99399 10.1034C5.95493 10.1932 5.9061 10.2791 5.84751 10.3612C5.78891 10.4432 5.7186 10.5116 5.63657 10.5663C5.55454 10.6209 5.47251 10.6483 5.39047 10.6483L5.14438 10.4608C5.15219 10.4686 5.15219 10.4823 5.14438 10.5018C5.13657 10.5213 5.1268 10.5252 5.11508 10.5135C5.15415 10.5877 5.16391 10.6737 5.14438 10.7713C5.12485 10.869 5.09165 10.9686 5.04477 11.0702C4.9979 11.1717 4.94516 11.2674 4.88657 11.3573C4.82797 11.4471 4.77524 11.5233 4.72836 11.5858C4.9393 11.6405 5.15024 11.6815 5.36118 11.7088C5.57211 11.7362 5.78501 11.7498 5.99985 11.7498Z" fill="#616161"/>
</svg>
