<svg width="216" height="158" viewBox="0 0 216 158" fill="none" xmlns="http://www.w3.org/2000/svg">
<g filter="url(#filter0_d_400_8346)">
<rect x="16.5" y="16" width="175" height="118" rx="12" fill="#F8F9FA" shape-rendering="crispEdges"/>
<rect x="17" y="16.5" width="174" height="117" rx="11.5" stroke="#C5C4C7" shape-rendering="crispEdges"/>
<path d="M56.5 59C58.16 59 59.49 57.66 59.49 56C59.49 54.34 58.16 53 56.5 53C54.84 53 53.5 54.34 53.5 56C53.5 57.66 54.84 59 56.5 59ZM48.5 59C50.16 59 51.49 57.66 51.49 56C51.49 54.34 50.16 53 48.5 53C46.84 53 45.5 54.34 45.5 56C45.5 57.66 46.84 59 48.5 59ZM48.5 61C46.17 61 41.5 62.17 41.5 64.5V67H55.5V64.5C55.5 62.17 50.83 61 48.5 61ZM56.5 61C56.21 61 55.88 61.02 55.53 61.05C56.69 61.89 57.5 63.02 57.5 64.5V67H63.5V64.5C63.5 62.17 58.83 61 56.5 61Z" fill="black"/>
<path d="M41.9091 96V84.3636H48.8864V85.6136H43.3182V89.5455H48.3636V90.7955H43.3182V96H41.9091ZM51.0241 96V87.2727H52.3196V88.5909H52.4105C52.5696 88.1591 52.8575 87.8087 53.2741 87.5398C53.6908 87.2708 54.1605 87.1364 54.6832 87.1364C54.7817 87.1364 54.9048 87.1383 55.0526 87.142C55.2003 87.1458 55.312 87.1515 55.3878 87.1591V88.5227C55.3423 88.5114 55.2382 88.4943 55.0753 88.4716C54.9162 88.4451 54.7476 88.4318 54.5696 88.4318C54.1454 88.4318 53.7666 88.5208 53.4332 88.6989C53.1037 88.8731 52.8423 89.1155 52.6491 89.4261C52.4598 89.733 52.3651 90.0833 52.3651 90.4773V96H51.0241ZM56.9773 96V87.2727H58.3182V96H56.9773ZM57.6591 85.8182C57.3977 85.8182 57.1723 85.7292 56.983 85.5511C56.7973 85.3731 56.7045 85.1591 56.7045 84.9091C56.7045 84.6591 56.7973 84.4451 56.983 84.267C57.1723 84.089 57.3977 84 57.6591 84C57.9205 84 58.1439 84.089 58.3295 84.267C58.5189 84.4451 58.6136 84.6591 58.6136 84.9091C58.6136 85.1591 58.5189 85.3731 58.3295 85.5511C58.1439 85.7292 57.9205 85.8182 57.6591 85.8182ZM64.4332 96.1818C63.5923 96.1818 62.867 95.9962 62.2571 95.625C61.651 95.25 61.1832 94.7273 60.8537 94.0568C60.5279 93.3826 60.3651 92.5985 60.3651 91.7045C60.3651 90.8106 60.5279 90.0227 60.8537 89.3409C61.1832 88.6553 61.6416 88.1212 62.2287 87.7386C62.8196 87.3523 63.509 87.1591 64.2969 87.1591C64.7514 87.1591 65.2003 87.2348 65.6435 87.3864C66.0866 87.5379 66.4901 87.7841 66.8537 88.125C67.2173 88.4621 67.5071 88.9091 67.723 89.4659C67.9389 90.0227 68.0469 90.7083 68.0469 91.5227V92.0909H61.3196V90.9318H66.6832C66.6832 90.4394 66.5848 90 66.3878 89.6136C66.1946 89.2273 65.9181 88.9223 65.5582 88.6989C65.2022 88.4754 64.7817 88.3636 64.2969 88.3636C63.7628 88.3636 63.3007 88.4962 62.9105 88.7614C62.5241 89.0227 62.2268 89.3636 62.0185 89.7841C61.8101 90.2045 61.706 90.6553 61.706 91.1364V91.9091C61.706 92.5682 61.8196 93.1269 62.0469 93.5852C62.2779 94.0398 62.598 94.3864 63.0071 94.625C63.4162 94.8598 63.8916 94.9773 64.4332 94.9773C64.7855 94.9773 65.1037 94.928 65.3878 94.8295C65.6757 94.7273 65.9238 94.5758 66.1321 94.375C66.3404 94.1705 66.5014 93.9167 66.6151 93.6136L67.9105 93.9773C67.7741 94.4167 67.545 94.803 67.223 95.1364C66.901 95.4659 66.5033 95.7235 66.0298 95.9091C65.5563 96.0909 65.0241 96.1818 64.4332 96.1818ZM71.4276 90.75V96H70.0866V87.2727H71.3821V88.6364H71.4957C71.7003 88.1932 72.0109 87.8371 72.4276 87.5682C72.8442 87.2955 73.3821 87.1591 74.0412 87.1591C74.6321 87.1591 75.1491 87.2803 75.5923 87.5227C76.0355 87.7614 76.3802 88.125 76.6264 88.6136C76.8726 89.0985 76.9957 89.7121 76.9957 90.4545V96H75.6548V90.5455C75.6548 89.8598 75.4768 89.3258 75.1207 88.9432C74.7647 88.5568 74.276 88.3636 73.6548 88.3636C73.2268 88.3636 72.8442 88.4564 72.5071 88.642C72.1738 88.8277 71.9105 89.0985 71.7173 89.4545C71.5241 89.8106 71.4276 90.2424 71.4276 90.75ZM82.7415 96.1818C82.0142 96.1818 81.3722 95.9981 80.8153 95.6307C80.2585 95.2595 79.8229 94.7367 79.5085 94.0625C79.1941 93.3845 79.0369 92.5833 79.0369 91.6591C79.0369 90.7424 79.1941 89.947 79.5085 89.2727C79.8229 88.5985 80.2604 88.0777 80.821 87.7102C81.3816 87.3428 82.0294 87.1591 82.7642 87.1591C83.3324 87.1591 83.7813 87.2538 84.1108 87.4432C84.4441 87.6288 84.6979 87.8409 84.8722 88.0795C85.0502 88.3144 85.1884 88.5076 85.2869 88.6591H85.4006V84.3636H86.7415V96H85.446V94.6591H85.2869C85.1884 94.8182 85.0483 95.0189 84.8665 95.2614C84.6847 95.5 84.4252 95.714 84.0881 95.9034C83.7509 96.089 83.3021 96.1818 82.7415 96.1818ZM82.9233 94.9773C83.4612 94.9773 83.9157 94.8371 84.2869 94.5568C84.6581 94.2727 84.9403 93.8807 85.1335 93.3807C85.3267 92.8769 85.4233 92.2955 85.4233 91.6364C85.4233 90.9848 85.3286 90.4148 85.1392 89.9261C84.9498 89.4337 84.6695 89.0511 84.2983 88.7784C83.9271 88.5019 83.4688 88.3636 82.9233 88.3636C82.3551 88.3636 81.8816 88.5095 81.5028 88.8011C81.1278 89.089 80.8456 89.4811 80.6562 89.9773C80.4706 90.4697 80.3778 91.0227 80.3778 91.6364C80.3778 92.2576 80.4725 92.822 80.6619 93.3295C80.8551 93.8333 81.1392 94.2348 81.5142 94.5341C81.893 94.8295 82.3627 94.9773 82.9233 94.9773ZM95.5653 89.2273L94.3608 89.5682C94.285 89.3674 94.1733 89.1723 94.0256 88.983C93.8816 88.7898 93.6847 88.6307 93.4347 88.5057C93.1847 88.3807 92.8646 88.3182 92.4744 88.3182C91.9403 88.3182 91.4953 88.4413 91.1392 88.6875C90.7869 88.9299 90.6108 89.2386 90.6108 89.6136C90.6108 89.947 90.732 90.2102 90.9744 90.4034C91.2169 90.5966 91.5956 90.7576 92.1108 90.8864L93.4062 91.2045C94.1866 91.3939 94.768 91.6837 95.1506 92.0739C95.5331 92.4602 95.7244 92.9583 95.7244 93.5682C95.7244 94.0682 95.5805 94.5152 95.2926 94.9091C95.0085 95.303 94.6108 95.6136 94.0994 95.8409C93.5881 96.0682 92.9934 96.1818 92.3153 96.1818C91.4252 96.1818 90.6884 95.9886 90.1051 95.6023C89.5218 95.2159 89.1525 94.6515 88.9972 93.9091L90.2699 93.5909C90.3911 94.0606 90.6203 94.4129 90.9574 94.6477C91.2983 94.8826 91.7434 95 92.2926 95C92.9176 95 93.4138 94.8674 93.7812 94.6023C94.1525 94.3333 94.3381 94.0114 94.3381 93.6364C94.3381 93.3333 94.232 93.0795 94.0199 92.875C93.8078 92.6667 93.482 92.5114 93.0426 92.4091L91.5881 92.0682C90.7888 91.8788 90.2017 91.5852 89.8267 91.1875C89.4555 90.786 89.2699 90.2841 89.2699 89.6818C89.2699 89.1894 89.4081 88.7538 89.6847 88.375C89.965 87.9962 90.3456 87.6989 90.8267 87.483C91.3116 87.267 91.8608 87.1591 92.4744 87.1591C93.3381 87.1591 94.0161 87.3485 94.5085 87.7273C95.0047 88.1061 95.357 88.6061 95.5653 89.2273ZM101.788 85.6136V84.3636H110.516V85.6136H106.857V96H105.447V85.6136H101.788ZM111.602 96V87.2727H112.898V88.5909H112.989C113.148 88.1591 113.436 87.8087 113.852 87.5398C114.269 87.2708 114.739 87.1364 115.261 87.1364C115.36 87.1364 115.483 87.1383 115.631 87.142C115.778 87.1458 115.89 87.1515 115.966 87.1591V88.5227C115.92 88.5114 115.816 88.4943 115.653 88.4716C115.494 88.4451 115.326 88.4318 115.148 88.4318C114.723 88.4318 114.345 88.5208 114.011 88.6989C113.682 88.8731 113.42 89.1155 113.227 89.4261C113.038 89.733 112.943 90.0833 112.943 90.4773V96H111.602ZM117.555 96V87.2727H118.896V96H117.555ZM118.237 85.8182C117.976 85.8182 117.75 85.7292 117.561 85.5511C117.375 85.3731 117.283 85.1591 117.283 84.9091C117.283 84.6591 117.375 84.4451 117.561 84.267C117.75 84.089 117.976 84 118.237 84C118.499 84 118.722 84.089 118.908 84.267C119.097 84.4451 119.192 84.6591 119.192 84.9091C119.192 85.1591 119.097 85.3731 118.908 85.5511C118.722 85.7292 118.499 85.8182 118.237 85.8182ZM121.352 99.2727V87.2727H122.648V88.6591H122.807C122.905 88.5076 123.042 88.3144 123.216 88.0795C123.394 87.8409 123.648 87.6288 123.977 87.4432C124.311 87.2538 124.761 87.1591 125.33 87.1591C126.064 87.1591 126.712 87.3428 127.273 87.7102C127.833 88.0777 128.271 88.5985 128.585 89.2727C128.9 89.947 129.057 90.7424 129.057 91.6591C129.057 92.5833 128.9 93.3845 128.585 94.0625C128.271 94.7367 127.835 95.2595 127.278 95.6307C126.722 95.9981 126.08 96.1818 125.352 96.1818C124.792 96.1818 124.343 96.089 124.006 95.9034C123.669 95.714 123.409 95.5 123.227 95.2614C123.045 95.0189 122.905 94.8182 122.807 94.6591H122.693V99.2727H121.352ZM122.67 91.6364C122.67 92.2955 122.767 92.8769 122.96 93.3807C123.153 93.8807 123.436 94.2727 123.807 94.5568C124.178 94.8371 124.633 94.9773 125.17 94.9773C125.731 94.9773 126.199 94.8295 126.574 94.5341C126.953 94.2348 127.237 93.8333 127.426 93.3295C127.619 92.822 127.716 92.2576 127.716 91.6364C127.716 91.0227 127.621 90.4697 127.432 89.9773C127.246 89.4811 126.964 89.089 126.585 88.8011C126.21 88.5095 125.739 88.3636 125.17 88.3636C124.625 88.3636 124.167 88.5019 123.795 88.7784C123.424 89.0511 123.144 89.4337 122.955 89.9261C122.765 90.4148 122.67 90.9848 122.67 91.6364Z" fill="black"/>
</g>
<defs>
<filter id="filter0_d_400_8346" x="0.5" y="0" width="215" height="158" filterUnits="userSpaceOnUse" color-interpolation-filters="sRGB">
<feFlood flood-opacity="0" result="BackgroundImageFix"/>
<feColorMatrix in="SourceAlpha" type="matrix" values="0 0 0 0 0 0 0 0 0 0 0 0 0 0 0 0 0 0 127 0" result="hardAlpha"/>
<feOffset dx="4" dy="4"/>
<feGaussianBlur stdDeviation="10"/>
<feComposite in2="hardAlpha" operator="out"/>
<feColorMatrix type="matrix" values="0 0 0 0 0 0 0 0 0 0 0 0 0 0 0 0 0 0 0.2 0"/>
<feBlend mode="normal" in2="BackgroundImageFix" result="effect1_dropShadow_400_8346"/>
<feBlend mode="normal" in="SourceGraphic" in2="effect1_dropShadow_400_8346" result="shape"/>
</filter>
</defs>
</svg>
