<svg width="356" height="105" viewBox="0 0 356 105" fill="none" xmlns="http://www.w3.org/2000/svg">
<path d="M344.957 29V40.3238H355.708V48.6311H344.957V65.9835C344.957 70.0579 346.776 72.0946 350.413 72.0946C352.858 72.0946 354.623 71.6866 355.708 70.8707V79.0998C353.861 79.9679 351.282 80.4019 347.969 80.4019C343.461 80.4019 340.201 79.4112 338.191 77.4288C336.182 75.4475 335.178 71.9579 335.178 66.9601V48.6311H327.114V40.3238H335.178V29H344.957Z" fill="#402B09"/>
<path d="M308.869 39.3472C315.277 39.3472 319.95 41.3296 322.884 45.2933L316.364 51.1571C314.408 48.4954 311.856 47.164 308.708 47.164C307.134 47.164 305.789 47.5449 304.676 48.3055C303.562 49.0672 303.005 50.072 303.005 51.322C303.005 53.223 304.933 54.5805 308.791 55.3932L312.293 56.2091C316.581 57.1325 319.621 58.5594 321.412 60.4887C323.206 62.4157 324.103 64.8723 324.103 67.8585C324.103 71.6605 322.582 74.702 319.542 76.9817C316.5 79.2625 312.372 80.4019 307.159 80.4019C300.588 80.4019 295.537 78.3923 292.007 74.3732L298.526 68.2664C300.21 70.1132 301.757 71.3762 303.17 72.0555C304.582 72.7326 306.128 73.0711 307.81 73.0711C309.603 73.0711 311.139 72.6653 312.415 71.8515C313.691 71.0355 314.329 69.9494 314.329 68.592C314.329 66.3643 312.319 64.7888 308.3 63.8654C303.085 62.6707 299.826 61.7343 298.522 61.0572C297.22 60.378 296.175 59.5631 295.388 58.6137C294.6 57.6621 294.044 56.6302 293.717 55.519C293.392 54.4058 293.231 53.223 293.231 51.973C293.231 48.1167 294.711 45.0481 297.671 42.7673C300.631 40.4876 304.364 39.3472 308.869 39.3472Z" fill="#402B09"/>
<path d="M268.065 39.3472C273.93 39.3472 278.451 41.3025 281.628 45.2109C284.805 49.1204 286.394 54.2256 286.394 60.5277V63.2968H256.576C256.903 66.1213 258.03 68.3749 259.957 70.059C261.884 71.7408 264.259 72.5807 267.084 72.5807C271.213 72.5807 274.716 70.8164 277.596 67.2855L284.601 72.5807C280.365 77.7955 274.853 80.4019 268.065 80.4019C262.089 80.4019 257.051 78.503 252.952 74.7031C248.851 70.901 246.802 65.9574 246.802 59.8723C246.802 53.7905 248.851 48.8502 252.952 45.0503C257.051 41.2482 262.089 39.3472 268.065 39.3472ZM276.615 55.9661C276.563 52.8704 275.613 50.5483 273.764 48.9999C271.917 47.4526 269.529 46.6779 266.598 46.6779C263.664 46.6779 261.355 47.5329 259.671 49.243C257.987 50.9531 256.955 53.1948 256.576 55.9661H276.615Z" fill="#402B09"/>
<path d="M211.779 40.3237V60.5277C211.779 64.4372 212.374 67.2617 213.567 68.9999C214.761 70.7361 216.554 71.6041 218.944 71.6041C221.878 71.6041 224.105 70.7089 225.624 68.9175C227.145 67.1239 227.907 64.7063 227.907 61.6649V40.3237H237.681V79.4253H228.393V73.1536H228.233C225.952 77.9865 221.961 80.4019 216.258 80.4019C211.859 80.4019 208.382 79.0857 205.828 76.4522C203.276 73.8198 202 70.1132 202 65.3324V40.3237H211.779Z" fill="#402B09"/>
<path d="M88.428 40C92.8811 40 96.3685 41.3314 98.8924 43.9931C101.418 46.6526 102.681 50.3451 102.681 55.0694V80.0781H92.9071V59.796C92.9071 52.4642 90.5167 48.7977 85.737 48.7977C82.9679 48.7977 80.7815 49.694 79.1788 51.4844C77.5783 53.2758 76.7786 55.638 76.7786 58.572V80.0781H67V40.9766H76.2882V47.2483H76.4488C78.6764 42.4164 82.6695 40 88.428 40Z" fill="#F86F0A"/>
<path d="M61.1762 49.2214C61.1762 58.1829 58.2834 65.4876 52.5 71.1354C46.7155 76.7843 39.3164 79.6076 30.3038 79.6076C21.4497 79.6076 14.1851 76.8244 8.51129 71.257C2.83637 65.6905 0 58.4531 0 49.5469C0 43.6821 1.26085 38.4293 3.78472 33.7873C6.31076 29.1432 9.92188 25.518 14.6181 22.9106C19.3164 20.3043 24.7352 19 30.8724 19C39.8329 19 47.1235 21.7431 52.7431 27.2292C58.3648 32.7131 61.1762 40.0438 61.1762 49.2214ZM10.7509 48.8958C10.7509 55.1404 12.5836 60.2717 16.25 64.2908C19.9154 68.3099 24.681 70.3195 30.5469 70.3195C36.3563 70.3195 41.122 68.3522 44.8438 64.4167C48.5645 60.479 50.4253 55.3053 50.4253 48.8958C50.4253 42.9757 48.5775 38.0614 44.8828 34.1519C41.1903 30.2402 36.3846 28.2839 30.4644 28.2839C24.8709 28.2839 20.1866 30.2131 16.4106 34.0694C12.6367 37.9269 10.7509 42.8694 10.7509 48.8958Z" fill="#F86F0A"/>
<path d="M120.72 12.7203C120.218 13.2227 119.729 13.7381 119.251 14.2643C118.774 14.7906 118.309 15.3288 117.859 15.8789C117.408 16.428 116.97 16.9878 116.547 17.5586C116.124 18.1293 115.715 18.7109 115.32 19.3012C114.925 19.8926 114.544 20.4926 114.179 21.1024C113.814 21.7122 113.463 22.3307 113.128 22.9568C112.794 23.584 112.474 24.2188 112.17 24.8611C111.866 25.5035 111.579 26.1534 111.306 26.8099C111.034 27.4664 110.779 28.1293 110.539 28.7988C110.299 29.4683 110.077 30.1421 109.871 30.8225C109.664 31.5028 109.475 32.1875 109.302 32.8776C109.13 33.5666 108.973 34.26 108.834 34.9566C108.697 35.6543 108.575 36.3542 108.471 37.0573C108.367 37.7604 108.279 38.4657 108.209 39.1732C108.14 39.8796 108.088 40.5892 108.053 41.2988C108.018 42.0085 108 42.7192 108 43.4299C108 44.1406 108.018 44.8503 108.053 45.561C108.088 46.2706 108.14 46.9792 108.209 47.6866C108.279 48.3941 108.367 49.0983 108.471 49.8014C108.575 50.5046 108.697 51.2055 108.834 51.9021C108.973 52.5987 109.13 53.2921 109.302 53.9822C109.475 54.6712 109.664 55.3559 109.871 56.0362C110.077 56.7166 110.299 57.3915 110.539 58.0599C110.779 58.7294 111.034 59.3924 111.306 60.0488C111.579 60.7053 111.866 61.3553 112.17 61.9976C112.474 62.64 112.794 63.2747 113.128 63.9019C113.463 64.5291 113.814 65.1465 114.179 65.7563C114.544 66.3661 114.925 66.9661 115.32 67.5575C115.715 68.1478 116.124 68.7294 116.547 69.3001C116.97 69.8709 117.408 70.4308 117.859 70.9809C118.309 71.53 118.774 72.0681 119.251 72.5944C119.729 73.1217 120.218 73.6361 120.72 74.1385L151.43 104.847L163.354 92.9232L132.645 62.2135C132.338 61.9065 132.039 61.5918 131.746 61.2695C131.454 60.9473 131.171 60.6185 130.895 60.2821C130.618 59.9457 130.351 59.604 130.092 59.2546C129.834 58.9052 129.583 58.5493 129.341 58.1879C129.1 57.8266 128.867 57.4599 128.643 57.0866C128.42 56.7133 128.206 56.3357 128.001 55.9516C127.796 55.5686 127.601 55.1801 127.415 54.7873C127.229 54.3945 127.053 53.9974 126.887 53.5959C126.72 53.1934 126.563 52.7886 126.417 52.3785C126.27 51.9694 126.135 51.5571 126.008 51.1404C125.882 50.7248 125.766 50.306 125.661 49.8839C125.555 49.4629 125.46 49.0386 125.375 48.6122C125.289 48.1858 125.216 47.7572 125.152 47.3275C125.088 46.8978 125.035 46.4659 124.992 46.033C124.95 45.6011 124.917 45.1671 124.897 44.7331C124.875 44.299 124.864 43.8639 124.864 43.4299C124.864 42.9948 124.875 42.5608 124.897 42.1257C124.917 41.6916 124.95 41.2587 124.992 40.8257C125.035 40.3928 125.088 39.962 125.152 39.5313C125.216 39.1016 125.289 38.673 125.375 38.2465C125.46 37.8201 125.555 37.3969 125.661 36.9748C125.766 36.5527 125.882 36.1339 126.008 35.7183C126.135 35.3017 126.27 34.8893 126.417 34.4803C126.563 34.0712 126.72 33.6654 126.887 33.2639C127.053 32.8613 127.229 32.4642 127.415 32.0714C127.601 31.6786 127.796 31.2901 128.001 30.9071C128.206 30.523 128.42 30.1454 128.643 29.7721C128.867 29.4 129.1 29.0321 129.341 28.6708C129.583 28.3095 129.834 27.9536 130.092 27.6053C130.351 27.2559 130.618 26.913 130.895 26.5766C131.171 26.2413 131.454 25.9115 131.746 25.5892C132.039 25.268 132.338 24.9523 132.645 24.6452C132.952 24.3381 133.267 24.0386 133.589 23.7467C133.911 23.4549 134.241 23.1706 134.577 22.895C134.913 22.6194 135.256 22.3513 135.605 22.092C135.954 21.8338 136.309 21.5831 136.671 21.3422C137.032 21.1003 137.4 20.8681 137.772 20.6445C138.145 20.421 138.523 20.2062 138.907 20.0022C139.29 19.7971 139.679 19.6018 140.071 19.4151C140.464 19.2296 140.861 19.0538 141.264 18.8867C141.665 18.7207 142.07 18.5645 142.48 18.418C142.889 18.2715 143.302 18.1348 143.718 18.0089C144.134 17.883 144.553 17.7669 144.975 17.6617C145.396 17.5553 145.82 17.4609 146.247 17.3752C146.673 17.2906 147.102 17.2168 147.531 17.1528C147.961 17.0888 148.393 17.0356 148.826 16.9933C149.258 16.951 149.692 16.9184 150.126 16.8978C150.56 16.8761 150.995 16.8652 151.429 16.8652C151.864 16.8652 152.298 16.8761 152.733 16.8978C153.167 16.9184 153.6 16.951 154.033 16.9933C154.466 17.0356 154.897 17.0888 155.326 17.1528C155.757 17.2168 156.185 17.2906 156.611 17.3763C157.038 17.4609 157.462 17.5564 157.884 17.6617C158.305 17.7669 158.724 17.883 159.14 18.0089C159.556 18.1359 159.969 18.2715 160.378 18.418C160.788 18.5645 161.193 18.7218 161.595 18.8878C161.996 19.0538 162.393 19.2307 162.786 19.4162C163.18 19.6018 163.567 19.7971 163.952 20.0022C164.335 20.2072 164.713 20.421 165.086 20.6445C165.459 20.8681 165.826 21.1013 166.187 21.3422C166.549 21.5842 166.904 21.8349 167.253 22.0931C167.603 22.3524 167.945 22.6194 168.281 22.8961C168.617 23.1717 168.946 23.4549 169.268 23.7467C169.591 24.0397 169.905 24.3392 170.212 24.6463C170.521 24.9533 170.82 25.268 171.112 25.5903C171.404 25.9125 171.687 26.2413 171.964 26.5777C172.239 26.9141 172.506 27.2569 172.766 27.6053C173.024 27.9546 173.275 28.3105 173.516 28.6719C173.757 29.0332 173.99 29.4 174.213 29.7732C174.437 30.1465 174.651 30.5241 174.857 30.9071C175.061 31.2912 175.257 31.6797 175.442 32.0725C175.628 32.4653 175.804 32.8624 175.971 33.2639C176.137 33.6654 176.293 34.0712 176.44 34.4803C176.586 34.8904 176.723 35.3027 176.849 35.7183C176.975 36.135 177.091 36.5538 177.197 36.9748C177.302 37.3969 177.398 37.8212 177.482 38.2476C177.567 38.674 177.641 39.1016 177.705 39.5323C177.769 39.962 177.822 40.3928 177.864 40.8257C177.908 41.2587 177.939 41.6916 177.961 42.1257C177.982 42.5608 177.992 42.9948 177.992 43.4299C177.992 43.8639 177.982 44.299 177.961 44.7331C177.939 45.1671 177.908 45.6 177.864 46.033C177.822 46.4659 177.769 46.8967 177.705 47.3275C177.641 47.7572 177.567 48.1858 177.482 48.6122C177.398 49.0386 177.302 49.4618 177.197 49.8839C177.091 50.306 176.975 50.7248 176.849 51.1404C176.723 51.556 176.586 51.9694 176.44 52.3785C176.293 52.7875 176.137 53.1934 175.971 53.5948C175.804 53.9963 175.628 54.3934 175.442 54.7862C175.257 55.1801 175.061 55.5675 174.857 55.9516C174.651 56.3346 174.437 56.7133 174.213 57.0855C173.99 57.4588 173.757 57.8255 173.516 58.1869C173.275 58.5493 173.024 58.9041 172.766 59.2535C172.506 59.6029 172.239 59.9447 171.964 60.281C171.687 60.6174 171.404 60.9462 171.112 61.2684C170.82 61.5907 170.521 61.9054 170.212 62.2125C169.08 63.3442 167.855 64.3642 166.537 65.2745C165.22 66.1838 163.831 66.9683 162.373 67.627C160.913 68.2856 159.407 68.8086 157.854 69.1949C156.3 69.5812 154.723 69.8253 153.126 69.9273L169.738 86.5386L182.138 74.1385C182.641 73.6361 183.131 73.1217 183.609 72.5944C184.085 72.0681 184.549 71.53 185.001 70.9809C185.451 70.4308 185.888 69.8709 186.312 69.3001C186.735 68.7294 187.145 68.1478 187.539 67.5575C187.934 66.9661 188.315 66.3661 188.679 65.7563C189.045 65.1465 189.395 64.5291 189.731 63.9019C190.066 63.2747 190.385 62.64 190.689 61.9976C190.993 61.3553 191.28 60.7053 191.553 60.0488C191.825 59.3924 192.08 58.7294 192.32 58.0599C192.559 57.3915 192.782 56.7166 192.988 56.0362C193.194 55.3559 193.384 54.6712 193.557 53.9822C193.729 53.2921 193.885 52.5987 194.024 51.9021C194.162 51.2044 194.284 50.5046 194.389 49.8014C194.493 49.0983 194.58 48.3941 194.649 47.6866C194.719 46.9792 194.771 46.2706 194.807 45.561C194.841 44.8503 194.859 44.1406 194.859 43.4299C194.859 42.7192 194.841 42.0085 194.807 41.2988C194.771 40.5881 194.719 39.8796 194.649 39.1732C194.58 38.4657 194.493 37.7604 194.389 37.0573C194.284 36.3542 194.162 35.6543 194.024 34.9566C193.885 34.26 193.729 33.5666 193.557 32.8776C193.384 32.1875 193.194 31.5028 192.988 30.8225C192.782 30.1421 192.559 29.4683 192.32 28.7988C192.08 28.1293 191.825 27.4664 191.553 26.8099C191.28 26.1534 190.993 25.5035 190.689 24.8611C190.385 24.2188 190.066 23.584 189.731 22.9568C189.395 22.3307 189.045 21.7122 188.679 21.1024C188.315 20.4926 187.934 19.8926 187.539 19.3012C187.145 18.7109 186.736 18.1293 186.312 17.5586C185.888 16.9878 185.451 16.428 185.001 15.8789C184.549 15.3288 184.085 14.7906 183.609 14.2643C183.131 13.7381 182.641 13.2227 182.138 12.7203C181.636 12.2179 181.122 11.7285 180.594 11.2511C180.068 10.7737 179.53 10.3092 178.981 9.85894C178.431 9.40755 177.871 8.97027 177.3 8.54709C176.729 8.12392 176.148 7.71484 175.558 7.31988C174.966 6.92491 174.366 6.54514 173.756 6.17947C173.146 5.8138 172.529 5.46332 171.902 5.12804C171.275 4.79384 170.64 4.47374 169.998 4.16992C169.355 3.8661 168.705 3.57856 168.049 3.30621C167.392 3.03385 166.729 2.77886 166.06 2.53906C165.391 2.29926 164.717 2.07682 164.036 1.87066C163.356 1.6645 162.671 1.47461 161.982 1.30208C161.292 1.12956 160.599 0.973307 159.902 0.835504C159.204 0.696615 158.505 0.575087 157.801 0.47092C157.098 0.366753 156.394 0.278863 155.687 0.209418C154.979 0.139974 154.271 0.0878906 153.56 0.0531684C152.85 0.0184462 152.141 0 151.43 0C150.719 0 150.008 0.0184462 149.299 0.0531684C148.588 0.0878906 147.88 0.139974 147.173 0.209418C146.466 0.278863 145.76 0.366753 145.057 0.47092C144.354 0.575087 143.654 0.696615 142.957 0.835504C142.26 0.973307 141.567 1.12956 140.878 1.30208C140.187 1.47461 139.503 1.6645 138.822 1.87066C138.142 2.07682 137.468 2.29926 136.799 2.53906C136.129 2.77886 135.466 3.03385 134.81 3.30621C134.153 3.57856 133.503 3.8661 132.861 4.16992C132.219 4.47374 131.584 4.79384 130.957 5.12804C130.331 5.46332 129.712 5.8138 129.102 6.17947C128.493 6.54514 127.893 6.92491 127.301 7.31988C126.711 7.71484 126.129 8.12392 125.559 8.54709C124.988 8.97027 124.428 9.40755 123.879 9.85894C123.329 10.3092 122.791 10.7737 122.264 11.2511C121.738 11.7285 121.223 12.2179 120.72 12.7203Z" fill="#402B09"/>
<path d="M150.283 26.0444C149.239 26.1193 148.211 26.2864 147.197 26.5447C146.183 26.804 145.201 27.1501 144.248 27.5852C143.297 28.0193 142.392 28.5347 141.532 29.1315C140.673 29.7283 139.873 30.3967 139.133 31.1367C138.802 31.4676 138.484 31.8116 138.182 32.1686C137.878 32.5256 137.589 32.8934 137.315 33.2732C137.041 33.653 136.783 34.0436 136.54 34.444C136.297 34.8444 136.071 35.2534 135.861 35.6723C135.651 36.0911 135.458 36.5175 135.282 36.9516C135.106 37.3856 134.948 37.8261 134.808 38.2732C134.667 38.7191 134.544 39.1716 134.44 39.6273C134.336 40.0842 134.25 40.5442 134.183 41.0076C134.116 41.4709 134.067 41.9364 134.037 42.404C134.006 42.8706 133.995 43.3394 134.002 43.807C134.009 44.2758 134.035 44.7424 134.08 45.2089C134.124 45.6755 134.188 46.1388 134.27 46.6C134.352 47.0612 134.452 47.518 134.57 47.9715C134.689 48.424 134.825 48.8721 134.979 49.3138C135.135 49.7565 135.306 50.1916 135.495 50.6202C135.685 51.0477 135.891 51.4687 136.113 51.8799L146.993 38.2417L153.925 48.7191L159.204 42.3954L166.823 52.1132C167.055 51.6998 167.27 51.2777 167.468 50.847C167.665 50.4173 167.845 49.9789 168.007 49.5329C168.17 49.0881 168.313 48.6367 168.439 48.1799C168.565 47.723 168.671 47.2619 168.76 46.7964C168.848 46.3309 168.917 45.8622 168.967 45.3912C169.017 44.9203 169.048 44.4472 169.06 43.9741C169.072 43.5 169.065 43.0269 169.039 42.5538C169.012 42.0807 168.966 41.6087 168.902 41.1399C168.837 40.6701 168.753 40.2046 168.651 39.7413C168.548 39.279 168.428 38.8211 168.288 38.3687C168.149 37.9151 167.991 37.4691 167.815 37.0286C167.639 36.5892 167.446 36.1562 167.235 35.7319C167.025 35.3077 166.797 34.8921 166.553 34.4863C166.308 34.0805 166.047 33.6855 165.772 33.3003C165.495 32.9151 165.203 32.5429 164.896 32.1816C164.59 31.8203 164.269 31.472 163.933 31.1367C163.491 30.694 163.025 30.2751 162.537 29.8823C162.049 29.4895 161.542 29.1228 161.015 28.7842C160.487 28.4457 159.944 28.1354 159.384 27.8554C158.823 27.5744 158.249 27.3248 157.662 27.1056C157.075 26.8865 156.478 26.6998 155.87 26.5447C155.264 26.3895 154.65 26.268 154.03 26.179C153.409 26.0889 152.787 26.0336 152.159 26.0108C151.533 25.9891 150.908 26 150.283 26.0444Z" fill="#F86F0A"/>
</svg>
