<svg width="91" height="109" viewBox="0 0 91 109" fill="none" xmlns="http://www.w3.org/2000/svg">
<rect width="91" height="109" fill="white"/>
<path d="M43.2833 27.0444C42.2394 27.1193 41.2108 27.2864 40.1973 27.5447C39.1828 27.804 38.2008 28.1501 37.2481 28.5852C36.2965 29.0193 35.3916 29.5347 34.5322 30.1315C33.6728 30.7283 32.8731 31.3967 32.1331 32.1367C31.8022 32.4676 31.4842 32.8116 31.1815 33.1686C30.8777 33.5256 30.5891 33.8934 30.3145 34.2732C30.0411 34.653 29.7829 35.0436 29.5398 35.444C29.2967 35.8444 29.071 36.2534 28.8605 36.6723C28.6511 37.0911 28.458 37.5175 28.2822 37.9516C28.1064 38.3856 27.948 38.8261 27.808 39.2732C27.667 39.7191 27.5444 40.1716 27.4402 40.6273C27.336 41.0842 27.2503 41.5442 27.183 42.0076C27.1157 42.4709 27.0669 42.9364 27.0365 43.404C27.0062 43.8706 26.9953 44.3394 27.0018 44.807C27.0094 45.2758 27.0355 45.7424 27.0799 46.2089C27.1244 46.6755 27.1884 47.1388 27.2698 47.6C27.3523 48.0612 27.4521 48.518 27.5704 48.9715C27.6887 49.424 27.8254 49.8721 27.9795 50.3138C28.1346 50.7565 28.3061 51.1916 28.4949 51.6202C28.6848 52.0477 28.8909 52.4687 29.1134 52.8799L39.9934 39.2417L46.9248 49.7191L52.2036 43.3954L59.823 53.1132C60.0552 52.6998 60.2701 52.2777 60.4675 51.847C60.665 51.4173 60.8451 50.9789 61.0068 50.5329C61.1696 50.0881 61.3128 49.6367 61.4387 49.1799C61.5645 48.723 61.6709 48.2619 61.7599 47.7964C61.8477 47.3309 61.9172 46.8622 61.9671 46.3912C62.017 45.9203 62.0485 45.4472 62.0604 44.9741C62.0724 44.5 62.0648 44.0269 62.0387 43.5538C62.0116 43.0807 61.966 42.6087 61.902 42.1399C61.8369 41.6701 61.7533 41.2046 61.6513 40.7413C61.5483 40.279 61.4278 39.8211 61.2878 39.3687C61.149 38.9151 60.9905 38.4691 60.8148 38.0286C60.639 37.5892 60.4458 37.1562 60.2353 36.7319C60.0248 36.3077 59.797 35.8921 59.5528 35.4863C59.3076 35.0805 59.0472 34.6855 58.7716 34.3003C58.4949 33.9151 58.203 33.5429 57.8959 33.1816C57.5899 32.8203 57.2687 32.472 56.9335 32.1367C56.4908 31.694 56.0253 31.2751 55.537 30.8823C55.0487 30.4895 54.542 30.1228 54.0146 29.7842C53.4873 29.4457 52.9437 29.1354 52.3838 28.8554C51.8228 28.5744 51.2488 28.3248 50.6618 28.1056C50.0747 27.8865 49.4779 27.6998 48.8703 27.5447C48.2638 27.3895 47.6496 27.268 47.03 27.179C46.4094 27.0889 45.7865 27.0336 45.1594 27.0108C44.5333 26.9891 43.9083 27 43.2833 27.0444Z" fill="#F86F0A"/>
<mask id="mask0_537_5823" style="mask-type:luminance" maskUnits="userSpaceOnUse" x="2" y="2" width="87" height="105">
<path d="M2 2H88.9716V106.792H2V2Z" fill="white"/>
</mask>
<g mask="url(#mask0_537_5823)">
<path d="M14.732 14.7388C14.2296 15.2412 13.7402 15.7566 13.2628 16.2829C12.7854 16.8091 12.321 17.3473 11.8707 17.8975C11.4193 18.4465 10.982 19.0064 10.5588 19.5771C10.1356 20.1479 9.72656 20.7295 9.3316 21.3198C8.93663 21.9111 8.55577 22.5112 8.19119 23.121C7.82552 23.7308 7.47504 24.3493 7.13976 24.9754C6.80556 25.6025 6.48546 26.2373 6.18164 26.8797C5.87782 27.522 5.59028 28.172 5.31793 28.8285C5.04557 29.4849 4.79058 30.1479 4.55078 30.8174C4.31098 31.4869 4.08854 32.1607 3.88238 32.841C3.67622 33.5214 3.48633 34.2061 3.3138 34.8962C3.14128 35.5852 2.98503 36.2785 2.84614 36.9752C2.70833 37.6729 2.58681 38.3727 2.48264 39.0758C2.37847 39.779 2.29058 40.4843 2.22114 41.1917C2.15169 41.8981 2.09961 42.6077 2.06489 43.3174C2.03016 44.027 2.01172 44.7377 2.01172 45.4485C2.01172 46.1592 2.03016 46.8688 2.06489 47.5795C2.09961 48.2892 2.15169 48.9977 2.22114 49.7052C2.29058 50.4127 2.37847 51.1169 2.48264 51.82C2.58681 52.5231 2.70833 53.2241 2.84614 53.9207C2.98503 54.6173 3.14128 55.3107 3.3138 56.0008C3.48633 56.6898 3.67622 57.3745 3.88238 58.0548C4.08854 58.7351 4.31098 59.4101 4.55078 60.0785C4.79058 60.7479 5.04557 61.4109 5.31793 62.0674C5.59028 62.7239 5.87782 63.3738 6.18164 64.0162C6.48546 64.6585 6.80556 65.2933 7.13976 65.9205C7.47504 66.5476 7.82552 67.165 8.19119 67.7749C8.55577 68.3847 8.93663 68.9847 9.3316 69.5761C9.72656 70.1663 10.1356 70.7479 10.5588 71.3187C10.982 71.8894 11.4193 72.4493 11.8707 72.9995C12.321 73.5485 12.7854 74.0867 13.2628 74.613C13.7402 75.1403 14.2296 75.6546 14.732 76.157L45.4416 106.866L57.3654 94.9417L26.6569 64.2321C26.3498 63.925 26.0503 63.6104 25.7574 63.2881C25.4655 62.9658 25.1823 62.637 24.9067 62.3007C24.63 61.9643 24.3631 61.6225 24.1037 61.2731C23.8455 60.9237 23.5948 60.5678 23.3529 60.2065C23.112 59.8452 22.8787 59.4784 22.6552 59.1051C22.4316 58.7319 22.2179 58.3543 22.0128 57.9702C21.8077 57.5871 21.6124 57.1987 21.4269 56.8059C21.2402 56.4131 21.0645 56.016 20.8984 55.6145C20.7313 55.2119 20.5751 54.8072 20.4286 54.397C20.2821 53.988 20.1465 53.5756 20.0195 53.159C19.8937 52.7434 19.7776 52.3245 19.6723 51.9025C19.5671 51.4814 19.4716 51.0572 19.3869 50.6308C19.3012 50.2043 19.2274 49.7757 19.1634 49.346C19.0994 48.9163 19.0462 48.4845 19.0039 48.0515C18.9616 47.6197 18.929 47.1857 18.9084 46.7516C18.8867 46.3176 18.8759 45.8825 18.8759 45.4485C18.8759 45.0133 18.8867 44.5793 18.9084 44.1442C18.929 43.7102 18.9616 43.2772 19.0039 42.8443C19.0462 42.4114 19.0994 41.9806 19.1634 41.5498C19.2274 41.1201 19.3012 40.6915 19.3869 40.2651C19.4716 39.8387 19.5671 39.4155 19.6723 38.9934C19.7776 38.5713 19.8937 38.1525 20.0195 37.7369C20.1465 37.3202 20.2821 36.9079 20.4286 36.4988C20.5751 36.0897 20.7313 35.6839 20.8984 35.2824C21.0645 34.8799 21.2402 34.4827 21.4269 34.09C21.6124 33.6972 21.8077 33.3087 22.0128 32.9257C22.2179 32.5416 22.4316 32.164 22.6552 31.7907C22.8787 31.4185 23.112 31.0507 23.3529 30.6893C23.5948 30.328 23.8455 29.9721 24.1037 29.6238C24.3631 29.2744 24.63 28.9315 24.9067 28.5952C25.1823 28.2599 25.4655 27.93 25.7574 27.6077C26.0503 27.2866 26.3498 26.9708 26.6569 26.6637C26.964 26.3567 27.2786 26.0572 27.6009 25.7653C27.9232 25.4734 28.253 25.1891 28.5883 24.9135C28.9247 24.6379 29.2676 24.3699 29.617 24.1106C29.9653 23.8523 30.3212 23.6017 30.6825 23.3608C31.0438 23.1188 31.4117 22.8866 31.7839 22.6631C32.1571 22.4396 32.5347 22.2247 32.9188 22.0207C33.3019 21.8156 33.6903 21.6203 34.0831 21.4337C34.4759 21.2482 34.873 21.0724 35.2756 20.9053C35.6771 20.7393 36.0818 20.583 36.492 20.4365C36.901 20.29 37.3134 20.1533 37.73 20.0275C38.1456 19.9016 38.5645 19.7855 38.9865 19.6802C39.4075 19.5739 39.8318 19.4795 40.2582 19.3938C40.6847 19.3091 41.1133 19.2354 41.543 19.1713C41.9727 19.1073 42.4045 19.0541 42.8375 19.0118C43.2693 18.9695 43.7033 18.937 44.1374 18.9163C44.5714 18.8946 45.0065 18.8838 45.4405 18.8838C45.8756 18.8838 46.3097 18.8946 46.7448 18.9163C47.1788 18.937 47.6118 18.9695 48.0447 19.0118C48.4776 19.0541 48.9084 19.1073 49.3381 19.1713C49.7689 19.2354 50.1964 19.3091 50.6228 19.3949C51.0493 19.4795 51.4735 19.575 51.8956 19.6802C52.3166 19.7855 52.7355 19.9016 53.1521 20.0275C53.5677 20.1544 53.9811 20.29 54.3902 20.4365C54.7993 20.583 55.2051 20.7403 55.6066 20.9064C56.008 21.0724 56.4052 21.2492 56.798 21.4348C57.1918 21.6203 57.5792 21.8156 57.9633 22.0207C58.3464 22.2258 58.725 22.4396 59.0972 22.6631C59.4705 22.8866 59.8372 23.1199 60.1986 23.3608C60.561 23.6028 60.9158 23.8534 61.2652 24.1117C61.6146 24.371 61.9564 24.6379 62.2927 24.9146C62.6291 25.1902 62.9579 25.4734 63.2802 25.7653C63.6024 26.0583 63.9171 26.3577 64.2242 26.6648C64.5323 26.9719 64.8318 27.2866 65.1237 27.6088C65.4156 27.9311 65.6988 28.2599 65.9755 28.5962C66.2511 28.9326 66.518 29.2755 66.7773 29.6238C67.0356 29.9732 67.2862 30.3291 67.5282 30.6904C67.7691 31.0518 68.0013 31.4185 68.2248 31.7918C68.4483 32.165 68.6632 32.5426 68.8683 32.9257C69.0723 33.3098 69.2687 33.6982 69.4542 34.091C69.6398 34.4838 69.8155 34.881 69.9826 35.2824C70.1487 35.6839 70.3049 36.0897 70.4514 36.4988C70.5979 36.909 70.7346 37.3213 70.8605 37.7369C70.9863 38.1535 71.1024 38.5724 71.2088 38.9934C71.314 39.4155 71.4095 39.8397 71.4941 40.2662C71.5788 40.6926 71.6526 41.1201 71.7166 41.5509C71.7806 41.9806 71.8338 42.4114 71.8761 42.8443C71.9195 43.2772 71.951 43.7102 71.9727 44.1442C71.9933 44.5793 72.0041 45.0133 72.0041 45.4485C72.0041 45.8825 71.9933 46.3176 71.9727 46.7516C71.951 47.1857 71.9195 47.6186 71.8761 48.0515C71.8338 48.4845 71.7806 48.9153 71.7166 49.346C71.6526 49.7757 71.5788 50.2043 71.4941 50.6308C71.4095 51.0572 71.314 51.4804 71.2088 51.9025C71.1024 52.3245 70.9863 52.7434 70.8605 53.159C70.7346 53.5745 70.5979 53.988 70.4514 54.397C70.3049 54.8061 70.1487 55.2119 69.9826 55.6134C69.8155 56.0149 69.6398 56.412 69.4542 56.8048C69.2687 57.1987 69.0723 57.586 68.8683 57.9702C68.6632 58.3532 68.4483 58.7319 68.2248 59.1041C68.0013 59.4773 67.7691 59.8441 67.5282 60.2054C67.2862 60.5678 67.0356 60.9226 66.7773 61.272C66.518 61.6214 66.2511 61.9632 65.9755 62.2996C65.6988 62.636 65.4156 62.9647 65.1237 63.287C64.8318 63.6093 64.5323 63.9239 64.2242 64.231C63.0914 65.3627 61.8663 66.3827 60.549 67.2931C59.2318 68.2024 57.8429 68.9869 56.3845 69.6455C54.9251 70.3041 53.4191 70.8272 51.8652 71.2134C50.3114 71.5997 48.7348 71.8439 47.1376 71.9459L63.75 88.5572L76.1502 76.157C76.6526 75.6546 77.143 75.1403 77.6204 74.613C78.0968 74.0867 78.5612 73.5485 79.0126 72.9995C79.4629 72.4493 79.9002 71.8894 80.3233 71.3187C80.7465 70.7479 81.1567 70.1663 81.5506 69.5761C81.9455 68.9847 82.3264 68.3847 82.691 67.7749C83.0566 67.165 83.4071 66.5476 83.7424 65.9205C84.0777 65.2933 84.3967 64.6585 84.7005 64.0162C85.0043 63.3738 85.2919 62.7239 85.5642 62.0674C85.8366 61.4109 86.0916 60.7479 86.3314 60.0785C86.5712 59.4101 86.7936 58.7351 86.9998 58.0548C87.2059 57.3745 87.3958 56.6898 87.5684 56.0008C87.7409 55.3107 87.8971 54.6173 88.036 53.9207C88.1738 53.223 88.2954 52.5231 88.4006 51.82C88.5048 51.1169 88.5916 50.4127 88.661 49.7052C88.7305 48.9977 88.7825 48.2892 88.8184 47.5795C88.8531 46.8688 88.8704 46.1592 88.8704 45.4485C88.8704 44.7377 88.8531 44.027 88.8184 43.3174C88.7825 42.6067 88.7305 41.8981 88.661 41.1917C88.5916 40.4843 88.5048 39.779 88.4006 39.0758C88.2954 38.3727 88.1738 37.6729 88.036 36.9752C87.8971 36.2785 87.7409 35.5852 87.5684 34.8962C87.3958 34.2061 87.2059 33.5214 86.9998 32.841C86.7936 32.1607 86.5712 31.4869 86.3314 30.8174C86.0916 30.1479 85.8366 29.4849 85.5642 28.8285C85.2919 28.172 85.0043 27.522 84.7005 26.8797C84.3967 26.2373 84.0777 25.6025 83.7424 24.9754C83.4071 24.3493 83.0566 23.7308 82.691 23.121C82.3264 22.5112 81.9455 21.9111 81.5506 21.3198C81.1567 20.7295 80.7476 20.1479 80.3233 19.5771C79.9002 19.0064 79.4629 18.4465 79.0126 17.8975C78.5612 17.3473 78.0968 16.8091 77.6204 16.2829C77.143 15.7566 76.6526 15.2412 76.1502 14.7388C75.6478 14.2364 75.1335 13.7471 74.6061 13.2696C74.0799 12.7922 73.5417 12.3278 72.9926 11.8775C72.4425 11.4261 71.8826 10.9888 71.3118 10.5656C70.7411 10.1425 70.1595 9.7334 69.5692 9.33843C68.9779 8.94347 68.3778 8.56369 67.768 8.19803C67.1582 7.83236 66.5408 7.48188 65.9136 7.14659C65.2865 6.81239 64.6517 6.4923 64.0093 6.18848C63.367 5.88466 62.717 5.59711 62.0605 5.32476C61.4041 5.05241 60.7411 4.79742 60.0716 4.55762C59.4032 4.31782 58.7283 4.09538 58.048 3.88921C57.3676 3.68305 56.6829 3.49316 55.9939 3.32064C55.3038 3.14811 54.6105 2.99186 53.9138 2.85406C53.2161 2.71517 52.5163 2.59364 51.8131 2.48947C51.11 2.38531 50.4058 2.29742 49.6983 2.22797C48.9909 2.15853 48.2823 2.10645 47.5716 2.07172C46.862 2.037 46.1523 2.01855 45.4416 2.01855C44.7309 2.01855 44.0202 2.037 43.3105 2.07172C42.5998 2.10645 41.8913 2.15853 41.1849 2.22797C40.4774 2.29742 39.7721 2.38531 39.069 2.48947C38.3659 2.59364 37.666 2.71517 36.9683 2.85406C36.2717 2.99186 35.5783 3.14811 34.8893 3.32064C34.1992 3.49316 33.5145 3.68305 32.8342 3.88921C32.1539 4.09538 31.48 4.31782 30.8105 4.55762C30.1411 4.79742 29.4781 5.05241 28.8216 5.32476C28.1651 5.59711 27.5152 5.88466 26.8728 6.18848C26.2305 6.4923 25.5957 6.81239 24.9685 7.14659C24.3424 7.48188 23.724 7.83236 23.1141 8.19803C22.5043 8.56369 21.9043 8.94347 21.3129 9.33843C20.7227 9.7334 20.1411 10.1425 19.5703 10.5656C18.9996 10.9888 18.4397 11.4261 17.8906 11.8775C17.3405 12.3278 16.8023 12.7922 16.276 13.2696C15.7498 13.7471 15.2344 14.2364 14.732 14.7388Z" fill="#402B09"/>
</g>
</svg>
