<svg width="20" height="20" viewBox="0 0 20 20" fill="none" xmlns="http://www.w3.org/2000/svg">
<g clip-path="url(#clip0_2_100)">
<path d="M10.4883 2.15502C10.1758 1.84244 9.75199 1.66678 9.31 1.66669H3.33333C2.89131 1.66669 2.46738 1.84228 2.15482 2.15484C1.84226 2.4674 1.66667 2.89133 1.66667 3.33335V9.31002C1.66676 9.75201 1.84242 10.1759 2.155 10.4884L9.40833 17.7417C9.7871 18.1181 10.2994 18.3293 10.8333 18.3293C11.3673 18.3293 11.8796 18.1181 12.2583 17.7417L17.7417 12.2584C18.118 11.8796 18.3293 11.3673 18.3293 10.8334C18.3293 10.2994 18.118 9.78712 17.7417 9.40835L10.4883 2.15502Z" stroke="black" stroke-width="1.5" stroke-linecap="round" stroke-linejoin="round"/>
<path d="M6.25 6.66671C6.48012 6.66671 6.66667 6.48016 6.66667 6.25004C6.66667 6.01992 6.48012 5.83337 6.25 5.83337C6.01988 5.83337 5.83334 6.01992 5.83334 6.25004C5.83334 6.48016 6.01988 6.66671 6.25 6.66671Z" fill="black" stroke="black" stroke-width="2" stroke-linecap="round" stroke-linejoin="round"/>
</g>
<defs>
<clipPath id="clip0_2_100">
<rect width="20" height="20" fill="white"/>
</clipPath>
</defs>
</svg>
