<svg width="20" height="20" viewBox="0 0 20 20" fill="none" xmlns="http://www.w3.org/2000/svg">
<path d="M7.91667 11.583C9.42894 11.583 10.7984 12.0456 11.7907 12.6846V12.6855C12.226 12.9662 12.5908 13.2804 12.8639 13.6064L12.9753 13.7471C13.2556 14.123 13.4167 14.5135 13.4167 14.8809C13.4167 15.2064 13.2905 15.4815 13.0641 15.7109L12.9606 15.8066C12.7449 15.9885 12.4607 16.1373 12.1237 16.2588L11.7692 16.3721C10.7771 16.6493 9.4138 16.75 7.91667 16.75C6.60619 16.75 5.39834 16.6729 4.4528 16.4678L4.06413 16.3721C3.63041 16.2507 3.26219 16.0943 2.98503 15.8945L2.87272 15.8057H2.87175C2.58147 15.5604 2.41668 15.2539 2.41667 14.8809C2.41667 14.5582 2.54028 14.2189 2.75944 13.8877L2.85905 13.7471C3.10584 13.4177 3.44579 13.0967 3.85905 12.8086L4.04069 12.6875L4.04264 12.6855C5.03438 12.0453 6.40375 11.583 7.91667 11.583ZM14.9997 11.583C15.8204 11.583 16.5743 11.8214 17.1628 12.1689L17.404 12.3242C18.0181 12.7523 18.4167 13.3103 18.4167 13.8096C18.4166 14.0334 18.3363 14.2231 18.193 14.3799L18.1276 14.4453C17.9917 14.5702 17.8132 14.6716 17.6022 14.7539L17.3815 14.8291C16.9351 14.9641 16.3693 15.0366 15.7409 15.0664C15.744 15.0051 15.7497 14.9433 15.7497 14.8809C15.7497 13.8395 15.3061 12.9677 14.8415 12.3477H14.8424C14.6581 12.1015 14.4513 11.8704 14.2292 11.6533C14.4825 11.607 14.7404 11.5832 14.9997 11.583ZM7.91667 3.25C8.71232 3.25 9.47515 3.5663 10.0378 4.12891C10.6004 4.69152 10.9167 5.45435 10.9167 6.25C10.9167 7.04565 10.6004 7.80848 10.0378 8.37109C9.47515 8.9337 8.71232 9.25 7.91667 9.25C7.22039 9.25 6.54917 9.00782 6.0153 8.57031L5.79557 8.37109C5.23297 7.80848 4.91667 7.04565 4.91667 6.25C4.91667 5.55372 5.15885 4.8825 5.59636 4.34863L5.79557 4.12891C6.28777 3.63671 6.93316 3.33291 7.61979 3.26465L7.91667 3.25ZM14.9997 5.75C15.4058 5.75 15.7976 5.8913 16.1091 6.14648L16.237 6.2627C16.5652 6.59088 16.7497 7.03587 16.7497 7.5C16.7497 7.90609 16.6093 8.29798 16.3542 8.60938L16.237 8.7373C15.9088 9.06539 15.4637 9.25 14.9997 9.25C14.5937 9.24992 14.2026 9.10853 13.8913 8.85352L13.7624 8.7373C13.4343 8.40913 13.2497 7.96405 13.2497 7.5C13.2497 7.09384 13.391 6.70205 13.6462 6.39062L13.7624 6.2627C14.0905 5.93458 14.5357 5.75009 14.9997 5.75Z" stroke="black" stroke-width="1.5"/>
</svg>
