<svg width="216" height="158" viewBox="0 0 216 158" fill="none" xmlns="http://www.w3.org/2000/svg">
<g filter="url(#filter0_d_400_8341)">
<rect x="16.5" y="16" width="175" height="118" rx="12" fill="#F8F9FA" shape-rendering="crispEdges"/>
<rect x="17" y="16.5" width="174" height="117" rx="11.5" stroke="#C5C4C7" shape-rendering="crispEdges"/>
<path d="M52.5 69.35L51.05 68.03C45.9 63.36 42.5 60.27 42.5 56.5C42.5 53.41 44.92 51 48 51C49.74 51 51.41 51.81 52.5 53.08C53.59 51.81 55.26 51 57 51C60.08 51 62.5 53.41 62.5 56.5C62.5 60.27 59.1 63.36 53.95 68.03L52.5 69.35Z" fill="black"/>
<path d="M41.9091 96V84.3636H45.8409C46.7538 84.3636 47.5 84.5284 48.0795 84.858C48.6629 85.1837 49.0947 85.625 49.375 86.1818C49.6553 86.7386 49.7955 87.3598 49.7955 88.0455C49.7955 88.7311 49.6553 89.3542 49.375 89.9148C49.0985 90.4754 48.6705 90.9223 48.0909 91.2557C47.5114 91.5852 46.7689 91.75 45.8636 91.75H43.0455V90.5H45.8182C46.4432 90.5 46.9451 90.392 47.3239 90.1761C47.7027 89.9602 47.9773 89.6686 48.1477 89.3011C48.322 88.9299 48.4091 88.5114 48.4091 88.0455C48.4091 87.5795 48.322 87.1629 48.1477 86.7955C47.9773 86.428 47.7008 86.1402 47.3182 85.9318C46.9356 85.7197 46.428 85.6136 45.7955 85.6136H43.3182V96H41.9091ZM54.4517 96.2045C53.8987 96.2045 53.3968 96.1004 52.946 95.892C52.4953 95.6799 52.1373 95.375 51.8722 94.9773C51.607 94.5758 51.4744 94.0909 51.4744 93.5227C51.4744 93.0227 51.5729 92.6174 51.7699 92.3068C51.9669 91.9924 52.2301 91.7462 52.5597 91.5682C52.8892 91.3902 53.2528 91.2576 53.6506 91.1705C54.0521 91.0795 54.4555 91.0076 54.8608 90.9545C55.3911 90.8864 55.821 90.8352 56.1506 90.8011C56.4839 90.7633 56.7263 90.7008 56.8778 90.6136C57.0331 90.5265 57.1108 90.375 57.1108 90.1591V90.1136C57.1108 89.553 56.9574 89.1174 56.6506 88.8068C56.3475 88.4962 55.8873 88.3409 55.2699 88.3409C54.6297 88.3409 54.1278 88.4811 53.7642 88.7614C53.4006 89.0417 53.1449 89.3409 52.9972 89.6591L51.7244 89.2045C51.9517 88.6742 52.2547 88.2614 52.6335 87.9659C53.0161 87.6667 53.4328 87.4583 53.8835 87.3409C54.3381 87.2197 54.785 87.1591 55.2244 87.1591C55.5047 87.1591 55.8267 87.1932 56.1903 87.2614C56.5578 87.3258 56.9119 87.4602 57.2528 87.6648C57.5975 87.8693 57.8835 88.178 58.1108 88.5909C58.3381 89.0038 58.4517 89.5568 58.4517 90.25V96H57.1108V94.8182H57.0426C56.9517 95.0076 56.8002 95.2102 56.5881 95.4261C56.3759 95.642 56.0938 95.8258 55.7415 95.9773C55.3892 96.1288 54.9593 96.2045 54.4517 96.2045ZM54.6562 95C55.1866 95 55.6335 94.8958 55.9972 94.6875C56.3646 94.4792 56.6411 94.2102 56.8267 93.8807C57.0161 93.5511 57.1108 93.2045 57.1108 92.8409V91.6136C57.054 91.6818 56.929 91.7443 56.7358 91.8011C56.5464 91.8542 56.3267 91.9015 56.0767 91.9432C55.8305 91.9811 55.59 92.0152 55.3551 92.0455C55.1241 92.072 54.9366 92.0947 54.7926 92.1136C54.4441 92.1591 54.1184 92.233 53.8153 92.3352C53.5161 92.4337 53.2737 92.5833 53.0881 92.7841C52.9063 92.9811 52.8153 93.25 52.8153 93.5909C52.8153 94.0568 52.9877 94.4091 53.3324 94.6477C53.6809 94.8826 54.1222 95 54.6562 95ZM60.8991 96V87.2727H62.1946V88.5909H62.2855C62.4446 88.1591 62.7325 87.8087 63.1491 87.5398C63.5658 87.2708 64.0355 87.1364 64.5582 87.1364C64.6567 87.1364 64.7798 87.1383 64.9276 87.142C65.0753 87.1458 65.187 87.1515 65.2628 87.1591V88.5227C65.2173 88.5114 65.1132 88.4943 64.9503 88.4716C64.7912 88.4451 64.6226 88.4318 64.4446 88.4318C64.0204 88.4318 63.6416 88.5208 63.3082 88.6989C62.9787 88.8731 62.7173 89.1155 62.5241 89.4261C62.3348 89.733 62.2401 90.0833 62.2401 90.4773V96H60.8991ZM71.1946 87.2727V88.4091H66.6719V87.2727H71.1946ZM67.9901 85.1818H69.331V93.5C69.331 93.8788 69.3859 94.1629 69.4957 94.3523C69.6094 94.5379 69.7533 94.6629 69.9276 94.7273C70.1056 94.7879 70.2931 94.8182 70.4901 94.8182C70.6378 94.8182 70.759 94.8106 70.8537 94.7955C70.9484 94.7765 71.0241 94.7614 71.081 94.75L71.3537 95.9545C71.2628 95.9886 71.1359 96.0227 70.973 96.0568C70.8101 96.0947 70.6037 96.1136 70.3537 96.1136C69.9749 96.1136 69.6037 96.0322 69.2401 95.8693C68.8802 95.7064 68.581 95.4583 68.3423 95.125C68.1075 94.7917 67.9901 94.3712 67.9901 93.8636V85.1818ZM74.5526 90.75V96H73.2116V87.2727H74.5071V88.6364H74.6207C74.8253 88.1932 75.1359 87.8371 75.5526 87.5682C75.9692 87.2955 76.5071 87.1591 77.1662 87.1591C77.7571 87.1591 78.2741 87.2803 78.7173 87.5227C79.1605 87.7614 79.5052 88.125 79.7514 88.6136C79.9976 89.0985 80.1207 89.7121 80.1207 90.4545V96H78.7798V90.5455C78.7798 89.8598 78.6018 89.3258 78.2457 88.9432C77.8897 88.5568 77.401 88.3636 76.7798 88.3636C76.3518 88.3636 75.9692 88.4564 75.6321 88.642C75.2988 88.8277 75.0355 89.0985 74.8423 89.4545C74.6491 89.8106 74.5526 90.2424 74.5526 90.75ZM86.2301 96.1818C85.3892 96.1818 84.6638 95.9962 84.054 95.625C83.4479 95.25 82.9801 94.7273 82.6506 94.0568C82.3248 93.3826 82.1619 92.5985 82.1619 91.7045C82.1619 90.8106 82.3248 90.0227 82.6506 89.3409C82.9801 88.6553 83.4384 88.1212 84.0256 87.7386C84.6165 87.3523 85.3059 87.1591 86.0938 87.1591C86.5483 87.1591 86.9972 87.2348 87.4403 87.3864C87.8835 87.5379 88.2869 87.7841 88.6506 88.125C89.0142 88.4621 89.304 88.9091 89.5199 89.4659C89.7358 90.0227 89.8438 90.7083 89.8438 91.5227V92.0909H83.1165V90.9318H88.4801C88.4801 90.4394 88.3816 90 88.1847 89.6136C87.9915 89.2273 87.715 88.9223 87.3551 88.6989C86.9991 88.4754 86.5786 88.3636 86.0938 88.3636C85.5597 88.3636 85.0975 88.4962 84.7074 88.7614C84.321 89.0227 84.0237 89.3636 83.8153 89.7841C83.607 90.2045 83.5028 90.6553 83.5028 91.1364V91.9091C83.5028 92.5682 83.6165 93.1269 83.8438 93.5852C84.0748 94.0398 84.3949 94.3864 84.804 94.625C85.2131 94.8598 85.6884 94.9773 86.2301 94.9773C86.5824 94.9773 86.9006 94.928 87.1847 94.8295C87.4725 94.7273 87.7206 94.5758 87.929 94.375C88.1373 94.1705 88.2983 93.9167 88.4119 93.6136L89.7074 93.9773C89.571 94.4167 89.3419 94.803 89.0199 95.1364C88.6979 95.4659 88.3002 95.7235 87.8267 95.9091C87.3532 96.0909 86.821 96.1818 86.2301 96.1818ZM91.8835 96V87.2727H93.179V88.5909H93.2699C93.429 88.1591 93.7169 87.8087 94.1335 87.5398C94.5502 87.2708 95.0199 87.1364 95.5426 87.1364C95.6411 87.1364 95.7642 87.1383 95.9119 87.142C96.0597 87.1458 96.1714 87.1515 96.2472 87.1591V88.5227C96.2017 88.5114 96.0975 88.4943 95.9347 88.4716C95.7756 88.4451 95.607 88.4318 95.429 88.4318C95.0047 88.4318 94.6259 88.5208 94.2926 88.6989C93.9631 88.8731 93.7017 89.1155 93.5085 89.4261C93.3191 89.733 93.2244 90.0833 93.2244 90.4773V96H91.8835ZM101.882 85.6136V84.3636H110.609V85.6136H106.95V96H105.541V85.6136H101.882ZM111.696 96V87.2727H112.991V88.5909H113.082C113.241 88.1591 113.529 87.8087 113.946 87.5398C114.363 87.2708 114.832 87.1364 115.355 87.1364C115.454 87.1364 115.577 87.1383 115.724 87.142C115.872 87.1458 115.984 87.1515 116.06 87.1591V88.5227C116.014 88.5114 115.91 88.4943 115.747 88.4716C115.588 88.4451 115.42 88.4318 115.241 88.4318C114.817 88.4318 114.438 88.5208 114.105 88.6989C113.776 88.8731 113.514 89.1155 113.321 89.4261C113.132 89.733 113.037 90.0833 113.037 90.4773V96H111.696ZM117.649 96V87.2727H118.99V96H117.649ZM118.331 85.8182C118.07 85.8182 117.844 85.7292 117.655 85.5511C117.469 85.3731 117.376 85.1591 117.376 84.9091C117.376 84.6591 117.469 84.4451 117.655 84.267C117.844 84.089 118.07 84 118.331 84C118.592 84 118.816 84.089 119.001 84.267C119.191 84.4451 119.286 84.6591 119.286 84.9091C119.286 85.1591 119.191 85.3731 119.001 85.5511C118.816 85.7292 118.592 85.8182 118.331 85.8182ZM121.446 99.2727V87.2727H122.741V88.6591H122.901C122.999 88.5076 123.135 88.3144 123.31 88.0795C123.488 87.8409 123.741 87.6288 124.071 87.4432C124.404 87.2538 124.855 87.1591 125.423 87.1591C126.158 87.1591 126.806 87.3428 127.366 87.7102C127.927 88.0777 128.365 88.5985 128.679 89.2727C128.993 89.947 129.151 90.7424 129.151 91.6591C129.151 92.5833 128.993 93.3845 128.679 94.0625C128.365 94.7367 127.929 95.2595 127.372 95.6307C126.815 95.9981 126.173 96.1818 125.446 96.1818C124.885 96.1818 124.437 96.089 124.099 95.9034C123.762 95.714 123.503 95.5 123.321 95.2614C123.139 95.0189 122.999 94.8182 122.901 94.6591H122.787V99.2727H121.446ZM122.764 91.6364C122.764 92.2955 122.861 92.8769 123.054 93.3807C123.247 93.8807 123.529 94.2727 123.901 94.5568C124.272 94.8371 124.726 94.9773 125.264 94.9773C125.825 94.9773 126.293 94.8295 126.668 94.5341C127.046 94.2348 127.33 93.8333 127.52 93.3295C127.713 92.822 127.81 92.2576 127.81 91.6364C127.81 91.0227 127.715 90.4697 127.526 89.9773C127.34 89.4811 127.058 89.089 126.679 88.8011C126.304 88.5095 125.832 88.3636 125.264 88.3636C124.719 88.3636 124.26 88.5019 123.889 88.7784C123.518 89.0511 123.238 89.4337 123.048 89.9261C122.859 90.4148 122.764 90.9848 122.764 91.6364Z" fill="black"/>
</g>
<defs>
<filter id="filter0_d_400_8341" x="0.5" y="0" width="215" height="158" filterUnits="userSpaceOnUse" color-interpolation-filters="sRGB">
<feFlood flood-opacity="0" result="BackgroundImageFix"/>
<feColorMatrix in="SourceAlpha" type="matrix" values="0 0 0 0 0 0 0 0 0 0 0 0 0 0 0 0 0 0 127 0" result="hardAlpha"/>
<feOffset dx="4" dy="4"/>
<feGaussianBlur stdDeviation="10"/>
<feComposite in2="hardAlpha" operator="out"/>
<feColorMatrix type="matrix" values="0 0 0 0 0 0 0 0 0 0 0 0 0 0 0 0 0 0 0.2 0"/>
<feBlend mode="normal" in2="BackgroundImageFix" result="effect1_dropShadow_400_8341"/>
<feBlend mode="normal" in="SourceGraphic" in2="effect1_dropShadow_400_8341" result="shape"/>
</filter>
</defs>
</svg>
